<?xml version="1.0" encoding="utf-8"?>
<!-- Generator: Adobe Illustrator 26.2.1, SVG Export Plug-In . SVG Version: 6.00 Build 0)  -->
<svg version="1.1" id="Слой_1" xmlns="http://www.w3.org/2000/svg" x="0px" y="0px"
     viewBox="0 0 30 30" style="enable-background:new 0 0 30 30;" xml:space="preserve">
<style type="text/css">
	.st0{fill:#020202;}
</style>
    <g>
	<path class="st0" d="M27.53,11.49c-0.02-0.06-0.05-0.12-0.1-0.16c-0.11-0.1-0.24-0.17-0.36-0.27c-0.15-0.13-0.31-0.19-0.5-0.19
		c-0.43,0.01-0.86,0.03-1.29,0.03c-0.99,0-1.99,0-2.98,0c-0.23,0-0.46-0.02-0.69-0.01c-0.11,0-0.22,0.03-0.32,0.07
		c-0.16,0.07-0.24,0.04-0.29-0.12c-0.01-0.04-0.03-0.09-0.03-0.13c-0.02-0.11-0.07-0.13-0.18-0.1c-0.1,0.03-0.22,0.01-0.32,0.01
		c-0.11,0-0.22-0.03-0.32-0.02c-0.12,0.02-0.15-0.03-0.15-0.13c0-0.05-0.02-0.14-0.04-0.15c-0.21-0.04-0.29-0.2-0.42-0.34
		c-0.16-0.18-0.3-0.36-0.4-0.57C19.07,9.22,19,9.02,18.88,8.86c-0.12-0.16-0.19-0.32-0.16-0.52c0.01-0.1-0.02-0.18-0.14-0.21
		c-0.13-0.03-0.18-0.14-0.19-0.26c0-0.09,0-0.19,0-0.28c0-0.18-0.05-0.35-0.17-0.48c-0.14-0.14-0.19-0.31-0.18-0.51
		c0.01-0.1,0.01-0.2,0.02-0.3c0.01-0.12-0.02-0.21-0.15-0.25C17.82,6,17.73,5.94,17.76,5.82c0.08-0.29-0.02-0.55-0.13-0.81
		c-0.09-0.2-0.14-0.4-0.22-0.6c-0.01-0.03-0.03-0.09-0.06-0.09c-0.25-0.07-0.26-0.27-0.26-0.48c0-0.07-0.03-0.17-0.08-0.21
		c-0.13-0.1-0.2-0.23-0.22-0.39c-0.02-0.15-0.09-0.27-0.22-0.36C16.48,2.8,16.35,2.7,16.3,2.59c-0.17-0.37-0.42-0.51-0.83-0.47
		c-0.24,0.03-0.44,0.04-0.6,0.25c-0.13,0.17-0.26,0.33-0.28,0.55c-0.03,0.47-0.22,0.89-0.48,1.27c-0.14,0.2-0.18,0.39-0.14,0.63
		c0.03,0.16,0.02,0.34-0.13,0.44c-0.17,0.11-0.2,0.25-0.21,0.43c0,0.19-0.06,0.36-0.28,0.4c-0.03,0.01-0.06,0.07-0.06,0.11
		c0,0.15,0,0.3,0.01,0.45c0.02,0.25-0.03,0.34-0.26,0.46C13,7.13,12.97,7.22,12.98,7.25c0.12,0.26,0.09,0.39-0.18,0.48
		c-0.11,0.04-0.17,0.1-0.17,0.22c0,0.16-0.03,0.32-0.01,0.48c0.03,0.22-0.04,0.38-0.23,0.49c-0.08,0.05-0.09,0.12-0.1,0.21
		c-0.02,0.16-0.07,0.33-0.15,0.46c-0.09,0.13-0.23,0.24-0.35,0.34c-0.09,0.07-0.13,0.15-0.13,0.27c0,0.24-0.09,0.31-0.32,0.34
		c-0.1,0.01-0.24,0.06-0.27,0.13c-0.08,0.19-0.21,0.24-0.39,0.24c-0.18,0-0.36,0-0.54,0c-1.17,0-2.35-0.01-3.52-0.01
		c-0.18,0-0.37,0.01-0.47,0.2c-0.08,0.15-0.2,0.18-0.35,0.18c-0.59,0-1.19,0-1.78,0c-0.04,0-0.12,0.01-0.12,0.02
		c-0.04,0.19-0.2,0.29-0.31,0.43c-0.08,0.11-0.15,0.23-0.27,0.3c-0.1,0.06-0.15,0.13-0.14,0.25c0,0.13,0,0.25,0,0.38
		c0.13,0.1,0.19,0.26,0.18,0.42c0.52,0.18,0.82,0.66,1.22,1.01c0.09,0.08,0.17,0.14,0.26,0.22c0.12,0.01,0.23,0.04,0.26,0.17
		c0.01,0.04,0.03,0.07,0.06,0.09c0.02,0.01,0.04,0.03,0.05,0.04c0.09,0.05,0.19,0.08,0.23,0.18c0.1,0.07,0.19,0.14,0.29,0.21
		c0.02,0,0.03,0.01,0.05,0.01c0.06,0,0.14-0.01,0.18,0.02c0.15,0.12,0.32,0.24,0.41,0.41c0.15,0.1,0.31,0.2,0.46,0.31
		c0.12,0.01,0.21,0.06,0.26,0.17c0.23,0.16,0.47,0.31,0.7,0.47c0.53,0.36,1.02,0.77,1.56,1.11c0.14,0.09,0.21,0.21,0.23,0.34
		c0.02,0,0.03,0,0.05,0c-0.03,0.04-0.04,0.05-0.05,0.08c0,0.17-0.09,0.34-0.23,0.44c0,0.05,0,0.09,0.01,0.14
		c0.01,0.04-0.06,0.13-0.1,0.14c-0.15,0.03-0.17,0.12-0.17,0.25c0.01,0.23-0.05,0.43-0.25,0.58c-0.04,0.03-0.08,0.12-0.06,0.17
		c0.06,0.28-0.05,0.52-0.17,0.76c-0.09,0.17-0.16,0.34-0.21,0.52c-0.03,0.12-0.09,0.2-0.21,0.25c-0.04,0.02-0.1,0.06-0.1,0.09
		c0,0.16-0.02,0.34,0.03,0.49c0.09,0.29,0.09,0.33-0.2,0.41c-0.11,0.03-0.19,0.09-0.19,0.21c0,0.26,0,0.52,0.02,0.78
		c0.02,0.25-0.04,0.39-0.27,0.51c-0.04,0.02-0.09,0.06-0.09,0.09c0.01,0.31,0.01,0.62,0.04,0.92c0.01,0.13-0.01,0.21-0.11,0.3
		c-0.15,0.12-0.3,0.23-0.3,0.46c0,0.16-0.01,0.3,0.14,0.39c0.02,0.01,0.04,0.04,0.04,0.06c-0.02,0.21-0.01,0.42-0.08,0.61
		c-0.07,0.2-0.15,0.4-0.09,0.61c0.06,0.22,0.14,0.43,0.21,0.65c0.01,0.05,0,0.11-0.01,0.17c-0.02,0.01-0.03,0.02-0.05,0.04
		c0.08,0.03,0.16,0.07,0.24,0.07c0.25,0.01,0.5,0.02,0.75,0.01c0.3-0.01,0.6-0.02,0.89-0.04c0.06,0,0.14-0.05,0.15-0.09
		c0.07-0.2,0.23-0.24,0.42-0.24c0.05,0,0.13-0.03,0.15-0.06c0.15-0.24,0.38-0.31,0.63-0.35c0.21-0.04,0.43-0.08,0.63-0.18
		c0.29-0.14,0.55-0.32,0.82-0.49c0.16-0.1,0.32-0.19,0.46-0.31c0.39-0.31,0.81-0.56,1.3-0.69c0.14-0.04,0.21-0.12,0.23-0.26
		c0.01-0.05,0.03-0.1,0.07-0.14c0.06-0.07,0.14-0.12,0.21-0.19c0.11-0.12,0.24-0.16,0.4-0.12c0.07,0.02,0.23-0.04,0.23-0.09
		c0.03-0.23,0.21-0.31,0.38-0.41c0.15-0.09,0.29-0.09,0.44,0c0.05,0.03,0.1,0.08,0.15,0.09c0.45,0.08,0.8,0.34,1.11,0.65
		c0.12,0.12,0.25,0.19,0.42,0.18c0.15-0.01,0.25,0.05,0.36,0.15c0.06,0.07,0.16,0.1,0.25,0.14c0.15,0.08,0.35,0.11,0.44,0.23
		c0.19,0.25,0.45,0.34,0.72,0.47c0.32,0.16,0.62,0.35,0.92,0.55c0.22,0.14,0.43,0.22,0.69,0.14c0.19-0.05,0.41-0.04,0.53,0.12
		c0.17,0.23,0.37,0.26,0.62,0.22c0.04-0.01,0.1-0.01,0.13,0.01c0.07,0.04,0.17,0.09,0.2,0.16c0.2,0.41,0.35,0.47,0.76,0.31
		c0.07-0.03,0.15-0.07,0.22-0.1c0.37-0.15,0.53-0.43,0.53-0.82c0-0.44,0-0.89,0.01-1.33c0-0.1,0.01-0.2,0-0.3
		c0-0.23,0-0.46-0.02-0.69c-0.01-0.12-0.05-0.21-0.16-0.28c-0.07-0.05-0.15-0.16-0.15-0.24c-0.01-0.4-0.01-0.8,0.03-1.2
		c0.01-0.16-0.03-0.24-0.16-0.29c-0.14-0.05-0.18-0.15-0.18-0.29c0-0.41-0.02-0.83-0.02-1.24c0-0.11-0.04-0.18-0.13-0.23
		c-0.18-0.11-0.22-0.21-0.19-0.43c0.02-0.12,0.04-0.25,0.04-0.37c0-0.07-0.05-0.16-0.1-0.2c-0.22-0.15-0.26-0.21-0.21-0.47
		c0.03-0.16,0.01-0.3-0.06-0.45c-0.07-0.14-0.13-0.3-0.14-0.45c0-0.27-0.02-0.56,0.3-0.7c0.02-0.01,0.04-0.04,0.04-0.06
		c0.06-0.25,0.24-0.3,0.46-0.28c0.13,0.01,0.21-0.02,0.25-0.15c0.01-0.04,0.06-0.06,0.09-0.09c0.07-0.06,0.16-0.1,0.23-0.16
		c0.17-0.17,0.33-0.34,0.48-0.52c0.43-0.51,0.96-0.92,1.33-1.48c0.14-0.21,0.35-0.32,0.62-0.3c0.13,0.01,0.2-0.07,0.22-0.18
		c0.06-0.42,0.29-0.75,0.52-1.08c0.26-0.36,0.5-0.74,0.73-1.13C27.57,12.04,27.61,11.77,27.53,11.49z M15.68,4.55c0.64,0,0.64,1,0,1
		C15.03,5.55,15.03,4.55,15.68,4.55z M14.86,5.81c0.08-0.09,0.23-0.15,0.35-0.15c0.13,0,0.24,0.06,0.34,0.14
		c-0.01-0.01-0.02-0.01-0.03-0.02c0.21,0.15,0.44,0.25,0.67,0.38c0.2,0.11,0.37,0.28,0.58,0.38c0.01,0,0.02,0.01,0.03,0.01
		c0.27,0.07,0.41,0.35,0.35,0.62c-0.06,0.26-0.36,0.42-0.62,0.35c-0.17-0.05-0.34-0.13-0.48-0.23c-0.11-0.08-0.22-0.17-0.34-0.24
		c-0.13-0.07-0.26-0.13-0.4-0.21C15.15,6.74,15,6.64,14.86,6.52c-0.1-0.08-0.14-0.23-0.15-0.35C14.71,6.03,14.77,5.91,14.86,5.81z
		 M14.45,7.46c0.12-0.24,0.46-0.32,0.68-0.18c0.19,0.12,0.38,0.22,0.58,0.32c0.18,0.09,0.36,0.17,0.52,0.29
		c0.16,0.12,0.31,0.26,0.45,0.4c0.05,0.05,0.12,0.1,0.17,0.16c0.01,0.01,0.03,0.02,0.04,0.03c0.04,0.02,0.08,0.05,0.12,0.06
		c0.25,0.12,0.3,0.46,0.18,0.68c-0.01,0.02-0.03,0.03-0.04,0.05c0,0.01,0.01,0.03,0.01,0.04c-0.02,0-0.03,0-0.05,0.01
		c-0.15,0.16-0.41,0.19-0.6,0.09c-0.19-0.09-0.35-0.23-0.5-0.38c-0.06-0.06-0.12-0.12-0.18-0.18c-0.03-0.03-0.06-0.06-0.09-0.09
		c-0.01-0.01-0.02-0.01-0.02-0.02c-0.36-0.21-0.73-0.38-1.09-0.6C14.39,8,14.32,7.7,14.45,7.46z M13.76,9.16
		C13.8,9,13.93,8.88,14.09,8.82c0-0.02,0.01-0.04,0.01-0.06c0.06,0.01,0.13,0,0.18,0.03c0,0,0.01,0.01,0.01,0.01
		c0.03,0,0.06,0,0.08,0.01c0.39,0.14,0.71,0.38,1.02,0.65c0.06,0.05,0.13,0.11,0.19,0.16c0.08,0.07,0.07,0.06,0.16,0.12
		c0.15,0.1,0.31,0.19,0.46,0.3c0.33,0.23,0.63,0.51,0.95,0.75c0.31,0.24,0.58,0.49,0.93,0.66c0.25,0.12,0.31,0.47,0.18,0.68
		c-0.05,0.09-0.13,0.15-0.21,0.19c-0.02,0.02-0.03,0.04-0.05,0.05c-0.02,0-0.02-0.01-0.04-0.01c-0.12,0.03-0.26,0.02-0.39-0.04
		c-0.34-0.16-0.65-0.45-0.93-0.66c-0.3-0.23-0.59-0.49-0.9-0.71c-0.31-0.23-0.64-0.41-0.94-0.67c-0.11-0.1-0.27-0.23-0.35-0.29
		c-0.07-0.05-0.13-0.09-0.21-0.13c-0.03-0.02-0.06-0.04-0.1-0.05c-0.04-0.02,0.01,0-0.06-0.02C13.85,9.68,13.68,9.44,13.76,9.16z
		 M13.05,10.58c0.14-0.08,0.29-0.08,0.42-0.02c0.04,0.01,0.07,0.03,0.11,0.05c0.23,0.16,0.45,0.32,0.68,0.47
		c0.11,0.07,0.21,0.16,0.32,0.24c0.04,0.03,0.08,0.05,0.13,0.08c0.14,0.09,0.29,0.16,0.44,0.24c0.64,0.36,1.24,0.79,1.8,1.26
		c0.02,0.02,0.03,0.04,0.04,0.06c0.12,0.06,0.21,0.17,0.26,0.31c-0.02-0.06-0.06-0.08,0-0.03c0.01,0.01,0.09,0.08,0.07,0.07
		c0.04,0.03,0.14,0.09,0.21,0.14c0.17,0.11,0.34,0.22,0.51,0.32c0.2,0.11,0.35,0.27,0.5,0.44c0.14,0.16,0.31,0.26,0.48,0.38
		c0.42,0.28,0.77,0.61,1.14,0.94c0.31,0.28,0.6,0.61,0.96,0.83c0.55,0.34,0.04,1.2-0.5,0.86c-0.39-0.24-0.71-0.57-1.04-0.88
		c-0.01,0-0.01-0.01-0.02-0.01c-0.1-0.04-0.17-0.12-0.22-0.21c-0.14-0.13-0.28-0.27-0.43-0.4c-0.17-0.15-0.37-0.26-0.56-0.39
		c-0.22-0.15-0.42-0.31-0.59-0.51c-0.15-0.17-0.33-0.24-0.52-0.37c-0.33-0.23-0.66-0.42-0.86-0.76c-0.05-0.02-0.09-0.04-0.13-0.07
		c-0.53-0.45-1.13-0.86-1.76-1.19c-0.3-0.16-0.57-0.34-0.87-0.5c-0.3-0.16-0.55-0.36-0.74-0.65C12.72,11.04,12.82,10.71,13.05,10.58
		z M17.22,16.21c0.06-0.12,0.18-0.19,0.3-0.23c0.12-0.04,0.28-0.01,0.39,0.05c0.09,0.05,0.16,0.14,0.2,0.24c0,0,0,0,0,0
		c0-0.01-0.01-0.02-0.01-0.03c0.01,0.01,0.02,0.03,0.02,0.04c0.03,0.04,0.07,0.07,0.1,0.1c0.08,0.05,0.15,0.11,0.23,0.16
		c0.12,0.08,0.24,0.16,0.35,0.27c0.1,0.09,0.14,0.22,0.15,0.35c0.01,0.13-0.06,0.26-0.15,0.35c-0.08,0.09-0.23,0.15-0.35,0.15
		c-0.13,0-0.26-0.06-0.35-0.15c-0.01-0.01-0.02-0.02-0.04-0.03c-0.12-0.09-0.26-0.17-0.38-0.26c-0.1-0.07-0.2-0.15-0.28-0.24
		c-0.1-0.12-0.18-0.24-0.23-0.39C17.13,16.46,17.16,16.32,17.22,16.21z M16.68,16.07c-0.64,0-0.64-1,0-1
		C17.33,15.07,17.32,16.07,16.68,16.07z M19.09,17.68c0.08-0.09,0.23-0.15,0.35-0.15c0.13,0,0.26,0.06,0.35,0.15
		c0.17,0.17,0.35,0.34,0.53,0.5c0.06,0.05,0.12,0.09,0.19,0.13c0.12,0.06,0.19,0.18,0.23,0.3c0.04,0.13,0.01,0.27-0.05,0.39
		c-0.06,0.11-0.18,0.2-0.3,0.23c-0.13,0.04-0.27,0.01-0.39-0.05c-0.08-0.04-0.15-0.09-0.22-0.14c-0.11-0.08-0.21-0.16-0.31-0.25
		c-0.14-0.12-0.27-0.26-0.4-0.39c-0.1-0.1-0.14-0.22-0.15-0.35C18.94,17.9,19,17.78,19.09,17.68z M12.35,12.16
		c0.22-0.07,0.42,0.04,0.54,0.21c0.01,0,0.01,0.01,0.02,0.01c0.03,0.01,0.06,0.02,0.09,0.03c0.13,0.04,0.26,0.08,0.38,0.15
		c0.14,0.07,0.26,0.18,0.39,0.27c0.13,0.09,0.28,0.16,0.42,0.25c0.62,0.38,1.14,0.88,1.7,1.33c0.22,0.17,0.17,0.53,0,0.71
		c-0.2,0.22-0.5,0.16-0.71,0c-0.29-0.23-0.56-0.48-0.85-0.71c-0.23-0.19-0.54-0.4-0.85-0.57c-0.15-0.09-0.29-0.18-0.43-0.28
		c-0.07-0.05-0.13-0.09-0.21-0.13c0,0,0,0,0,0c0,0,0,0,0,0c-0.02-0.01-0.04-0.01-0.05-0.01c-0.36-0.11-0.65-0.23-0.79-0.61
		C11.91,12.51,12.11,12.24,12.35,12.16z M7.36,14.37c-0.08,0.09-0.23,0.15-0.35,0.15c-0.13,0-0.26-0.06-0.35-0.15
		c-0.03-0.03-0.06-0.05-0.08-0.07c-0.16-0.12-0.33-0.23-0.49-0.36c0.03,0.03,0.07,0.05,0.1,0.08C6.09,13.95,6,13.87,5.9,13.8
		c0.03,0.03,0.07,0.05,0.1,0.08c-0.12-0.09-0.24-0.18-0.38-0.24c0.03,0.01,0.07,0.03,0.1,0.04c-0.08-0.02-0.16-0.07-0.22-0.13
		c-0.03-0.03-0.05-0.07-0.08-0.1c-0.07-0.11-0.08-0.26-0.05-0.39c0.03-0.12,0.13-0.24,0.23-0.3c0.1-0.06,0.27-0.1,0.39-0.05
		c0.13,0.05,0.25,0.11,0.37,0.19c0.12,0.08,0.22,0.17,0.34,0.25c-0.03-0.03-0.07-0.05-0.1-0.08c0.08,0.06,0.16,0.12,0.24,0.18
		c-0.03-0.03-0.07-0.05-0.1-0.08c0.21,0.16,0.44,0.29,0.63,0.47c0.1,0.09,0.14,0.22,0.15,0.35C7.52,14.15,7.45,14.27,7.36,14.37z
		 M9.5,14.09c-0.06,0.11-0.18,0.2-0.3,0.23c-0.13,0.04-0.27,0.01-0.39-0.05c-0.39-0.21-0.72-0.52-1.1-0.73
		c-0.24-0.14-0.3-0.45-0.18-0.68c0.06-0.11,0.18-0.2,0.3-0.23c0.13-0.03,0.27-0.01,0.39,0.05c0.39,0.22,0.71,0.52,1.1,0.73
		C9.57,13.54,9.62,13.86,9.5,14.09z M9.56,12.6c0-0.01-0.01-0.02-0.02-0.02c0.01,0,0.02-0.01,0.03-0.01c0-0.01,0-0.02,0.01-0.02
		c0.06-0.11,0.18-0.2,0.3-0.23c0.11-0.03,0.29-0.02,0.39,0.05c0.38,0.28,0.79,0.52,1.17,0.81c0.04,0.03,0.05,0.04,0.07,0.06
		c0,0-0.01-0.01,0,0c0.02,0.02,0.04,0.03,0.06,0.05c0.04,0.03,0.08,0.05,0.12,0.08c0.08,0.05,0.17,0.11,0.26,0.16
		c0.19,0.12,0.39,0.26,0.55,0.43c0.11,0.12,0.15,0.27,0.13,0.42c0.01,0.01,0.01,0.02,0.02,0.03c0.18-0.19,0.47-0.26,0.71-0.03
		c0.2,0.2,0.4,0.4,0.61,0.58c0.2,0.17,0.43,0.29,0.64,0.45c0.46,0.33,0.88,0.73,1.34,1.07c0.24,0.19,0.5,0.37,0.72,0.58
		c0.19,0.19,0.32,0.42,0.49,0.62c0.18,0.2,0.44,0.32,0.65,0.48c0.18,0.14,0.37,0.35,0.58,0.44c0.13,0.05,0.24,0.15,0.31,0.26
		c0.22,0.21,0.44,0.42,0.65,0.64c0.23,0.25,0.48,0.48,0.69,0.74c0.2,0.25,0.41,0.48,0.66,0.68c0.25,0.2,0.49,0.41,0.64,0.7
		c0.12,0.22,0.06,0.47-0.12,0.63c0.05,0.17,0.02,0.22-0.2,0.27c-0.04-0.05-0.08-0.11-0.12-0.16c-0.17-0.01-0.34-0.09-0.42-0.24
		c-0.02-0.04-0.04-0.07-0.06-0.11c0-0.01,0-0.01-0.01-0.01c0,0,0,0,0,0c-0.05-0.05-0.09-0.1-0.14-0.15
		c-0.11-0.1-0.22-0.19-0.34-0.28c-0.24-0.2-0.43-0.43-0.63-0.66c-0.21-0.26-0.46-0.49-0.69-0.74c-0.05-0.05-0.1-0.1-0.15-0.15
		c-0.02-0.02-0.04-0.03-0.06-0.05c-0.18-0.16-0.36-0.31-0.5-0.51c-0.01,0-0.01-0.01-0.01-0.01c-0.01,0-0.01-0.01-0.01-0.02
		c-0.01-0.01-0.02-0.02-0.02-0.03c-0.17-0.1-0.33-0.22-0.5-0.35c-0.23-0.19-0.48-0.33-0.71-0.51c-0.23-0.19-0.38-0.43-0.56-0.66
		c-0.18-0.23-0.45-0.4-0.68-0.58c-0.17-0.13-0.34-0.26-0.51-0.39c-0.03-0.01-0.06-0.03-0.09-0.07c-0.05-0.04-0.1-0.08-0.15-0.12
		c-0.21-0.18-0.41-0.38-0.65-0.54c-0.5-0.33-0.91-0.7-1.34-1.11c-0.15-0.15-0.17-0.32-0.12-0.47c-0.01,0.02-0.02,0.04-0.03,0.05
		c-0.18,0.19-0.53,0.19-0.71,0c-0.04-0.04-0.07-0.08-0.11-0.11c-0.01-0.01-0.03-0.02-0.04-0.03c-0.08-0.05-0.16-0.11-0.25-0.17
		c-0.08-0.05-0.17-0.11-0.25-0.16c-0.04-0.03-0.08-0.05-0.12-0.08c-0.02-0.01-0.03-0.03-0.05-0.04L10.89,14
		c-0.17-0.15-0.38-0.27-0.57-0.39c-0.19-0.13-0.38-0.25-0.57-0.39C9.55,13.06,9.46,12.84,9.56,12.6z M10.29,14.21
		c0.41,0.29,0.79,0.61,1.16,0.95c0.34,0.33,0.65,0.66,1.05,0.92c0.38,0.25,0.79,0.46,1.17,0.71c0.37,0.24,0.7,0.54,1.03,0.83
		c0.35,0.3,0.78,0.46,1.13,0.75c0.32,0.27,0.6,0.59,0.92,0.86c0.66,0.56,1.14,1.25,1.21,2.12c0.05,0.64-0.95,0.64-1,0
		c-0.07-0.82-0.77-1.23-1.3-1.74c-0.3-0.28-0.52-0.55-0.89-0.75c-0.36-0.19-0.66-0.44-0.96-0.71c-0.64-0.56-1.4-0.9-2.07-1.4
		c-0.7-0.51-1.24-1.2-1.95-1.7C9.26,14.71,9.77,13.84,10.29,14.21z M10.57,25.54c-0.08,0.09-0.23,0.15-0.35,0.15
		c-0.13,0-0.26-0.06-0.35-0.15c-0.33-0.31-0.69-0.58-1.01-0.89c-0.1-0.1-0.14-0.22-0.15-0.35c-0.01-0.13,0.06-0.26,0.15-0.35
		c0.08-0.09,0.23-0.15,0.35-0.15c0.13,0,0.26,0.06,0.35,0.15c0.32,0.32,0.68,0.59,1.01,0.89c0.1,0.09,0.14,0.22,0.15,0.35
		C10.72,25.32,10.66,25.44,10.57,25.54z M11.96,24.36c0.01,0.09-0.01,0.19-0.05,0.28c-0.12,0.23-0.46,0.32-0.68,0.18
		c-0.22-0.14-0.41-0.32-0.59-0.51c-0.12-0.13-0.25-0.25-0.38-0.37c-0.13-0.06-0.24-0.13-0.32-0.25c-0.04-0.06-0.08-0.13-0.12-0.19
		C9.59,23.25,9.37,23,9.23,22.71c-0.12-0.25-0.06-0.53,0.18-0.68c0.06-0.04,0.13-0.06,0.21-0.06c0,0,0.01-0.01,0.01-0.01
		c0.01,0,0.02,0.01,0.02,0.02c0.18,0,0.37,0.08,0.45,0.24c0.05,0.1,0.1,0.19,0.17,0.28c0.02,0.02,0.03,0.04,0.05,0.06c0,0,0,0,0,0
		c0.03,0.04,0.07,0.08,0.11,0.12c0.14,0.16,0.3,0.32,0.46,0.47c0.15,0.15,0.31,0.29,0.46,0.45c0.08,0.08,0.16,0.16,0.24,0.24
		c0.03,0.03,0.07,0.05,0.1,0.08c0,0,0,0,0.01,0c0.02,0.01,0.04,0.03,0.06,0.04c0.02,0.01,0.03,0.03,0.05,0.05
		c0.02,0,0.04,0.01,0.06,0.01c0.09-0.01,0.19,0,0.22,0.11C12.09,24.23,12.05,24.3,11.96,24.36z M12.92,23.08
		c-0.12,0.22-0.47,0.33-0.68,0.18c-0.82-0.58-1.64-1.15-2.24-1.97c-0.16-0.23-0.03-0.55,0.18-0.68c0.11-0.07,0.27-0.08,0.39-0.05
		c0.13,0.04,0.22,0.12,0.3,0.23c0.02,0.02,0.03,0.05,0.05,0.07c0,0,0,0,0,0c0.03,0.04,0.07,0.08,0.1,0.12
		c0.08,0.09,0.15,0.17,0.23,0.25c0.16,0.15,0.32,0.3,0.49,0.44c0.04,0.04,0.09,0.07,0.13,0.11c0.02,0.02,0.04,0.03,0.07,0.05
		c0.09,0.07,0.18,0.13,0.26,0.19c0.18,0.13,0.36,0.25,0.54,0.38C12.96,22.55,13.05,22.82,12.92,23.08z M14.48,22.65
		c-0.02,0.04-0.05,0.07-0.09,0.1c0,0.02-0.01,0.05-0.02,0.07c-0.05,0.13-0.15,0.14-0.25,0.07c-0.12,0.02-0.24,0.02-0.34-0.06
		c-0.17-0.13-0.32-0.26-0.47-0.41c-0.14-0.14-0.21-0.18-0.38-0.31c-0.28-0.22-0.53-0.46-0.78-0.71c-0.51-0.51-1.06-1.04-1.61-1.47
		c-0.22-0.17-0.32-0.42-0.18-0.68c0.12-0.22,0.48-0.34,0.68-0.18c0.61,0.47,1.18,1,1.72,1.54c0.26,0.26,0.52,0.51,0.8,0.74
		c0.11,0.09,0.26,0.19,0.39,0.31c0.06,0.06,0.12,0.11,0.18,0.17c0.03,0.03,0.07,0.06,0.1,0.09c0.01,0.01,0.09,0.08,0.05,0.04
		C14.52,22.13,14.62,22.38,14.48,22.65z M15.52,22.06C15.51,22.05,15.51,22.05,15.52,22.06c-0.01-0.01-0.01-0.01-0.01-0.01
		c-0.02-0.02-0.06-0.09-0.04-0.06c-0.02-0.03-0.11-0.12-0.17-0.17c-0.02-0.02-0.04-0.04-0.06-0.06c-0.13-0.04-0.24-0.1-0.32-0.24
		c-0.07-0.12-0.22-0.18-0.31-0.29c-0.04-0.05-0.07-0.1-0.11-0.15c-0.24-0.2-0.48-0.4-0.73-0.59c-0.42-0.32-0.84-0.61-1.22-0.97
		c-0.35-0.33-0.68-0.68-1.06-0.99c-0.21-0.17-0.17-0.53,0-0.71c0.21-0.21,0.5-0.17,0.71,0c0.41,0.32,0.76,0.71,1.14,1.06
		c0.39,0.36,0.83,0.66,1.25,0.98c0.24,0.18,0.48,0.35,0.7,0.56c0.17,0.16,0.33,0.34,0.5,0.49c0.35,0.31,0.7,0.62,0.72,1.12
		c0.02,0.27-0.24,0.5-0.5,0.5C15.74,22.53,15.55,22.31,15.52,22.06z M20.95,26.07c-0.29-0.27-0.73-0.38-1.06-0.6
		c-0.38-0.25-0.73-0.56-1.1-0.83c-0.66-0.48-1.29-1.11-2.12-1.28c-0.27-0.05-0.42-0.37-0.35-0.62c0.08-0.27,0.35-0.4,0.62-0.35
		c0.93,0.19,1.63,0.84,2.36,1.38c0.4,0.29,0.77,0.63,1.2,0.89c0.39,0.24,0.82,0.38,1.16,0.69C22.13,25.8,21.42,26.51,20.95,26.07z
		 M22.2,23.89c0.21,0.18,0.18,0.53,0,0.71c-0.2,0.2-0.5,0.18-0.71,0c-1.05-0.9-2.02-1.79-3.28-2.38c-0.25-0.12-0.31-0.47-0.18-0.68
		c0.14-0.25,0.44-0.29,0.68-0.18C20.04,21.97,21.11,22.96,22.2,23.89z M22.56,15.22c-0.2,0.2-0.51,0.18-0.71,0
		c-0.47-0.43-0.91-0.78-1.43-1.13c-0.27-0.18-0.54-0.35-0.82-0.51c-0.14-0.08-0.27-0.15-0.41-0.22c-0.07-0.04-0.15-0.07-0.22-0.1
		c-0.03-0.01-0.06-0.03-0.1-0.04c0.05,0.02-0.01,0-0.02-0.01c-0.26-0.11-0.42-0.33-0.35-0.62c0.06-0.24,0.37-0.45,0.62-0.35
		c1.28,0.52,2.43,1.33,3.44,2.27C22.75,14.69,22.74,15.03,22.56,15.22z M24.33,13.55c-0.12,0.23-0.46,0.32-0.68,0.18
		c-0.5-0.32-0.97-0.7-1.52-0.94c-0.12-0.05-0.19-0.18-0.23-0.3c-0.04-0.13-0.01-0.27,0.05-0.39c0.06-0.11,0.18-0.2,0.3-0.23
		c0.14-0.04,0.26-0.01,0.39,0.05c0.55,0.24,1.01,0.63,1.52,0.94C24.38,13.01,24.46,13.3,24.33,13.55z"/>
</g>
    <path d="M27.62,11.21c0-0.02-0.01-0.03-0.02-0.05c0.09-0.29-0.09-0.7-0.5-0.7l-6.89-0.09c-0.03,0-0.05,0.01-0.08,0.01
	c-0.39-1.13-0.8-2.25-1.25-3.35C18.5,6.1,18.1,5.17,17.64,4.27c-0.38-0.76-0.84-1.47-1.57-1.94c-0.34-0.22-0.72,0.01-0.82,0.29
	c-0.19-0.13-0.44-0.14-0.61,0.1c-1.68,2.35-2.04,5.36-3.72,7.7c-0.07,0.09-0.09,0.19-0.09,0.28c-1.36,0.03-2.72,0.05-4.07,0.08
	c-0.68,0.01-1.37,0.01-2.05,0.04c-0.55,0.02-1.11,0.13-1.55,0.49c-0.21,0.17-0.22,0.42-0.13,0.62c-0.02,0.03-0.04,0.05-0.05,0.08
	c-0.23,0.66,0.09,1.22,0.63,1.61c0.61,0.43,1.23,0.84,1.85,1.26l3.34,2.28c-0.4,1.85-0.79,3.7-1.19,5.56
	C7.41,23.67,7.2,24.62,7,25.58c-0.17,0.8-0.29,1.54,0.12,2.3c0.08,0.15,0.19,0.21,0.31,0.23c0.09,0.09,0.22,0.15,0.38,0.14
	c1.34-0.12,2.53-0.73,3.69-1.38c1.2-0.68,2.4-1.37,3.61-2.05c2.27,1.04,4.55,2.09,6.82,3.13c0.04,0.02,0.08,0.02,0.11,0.03
	c0.02,0.01,0.04,0.02,0.06,0.03c0.73,0.15,1.55-0.01,1.68-0.87c0.06-0.43-0.02-0.9-0.06-1.33c-0.04-0.51-0.08-1.03-0.12-1.54
	c-0.15-2.02-0.21-4.08-0.61-6.08c-0.01-0.05-0.03-0.09-0.06-0.13c1.07-0.91,2.09-1.89,3.01-2.96c0.48-0.56,1.01-1.14,1.28-1.84
	c0.04-0.09,0.06-0.19,0.09-0.28C27.58,12.43,27.71,11.81,27.62,11.21z M26.33,12.7c-0.03,0.02-0.07,0.1-0.08,0.12
	c-0.06,0.08-0.13,0.17-0.21,0.24c-0.02,0.02-0.05,0.04-0.06,0.06c0.02-0.02,0.07-0.06,0.02-0.02c-0.05,0.04-0.09,0.08-0.14,0.11
	c-0.18,0.14-0.25,0.4-0.16,0.61c-0.24,0.31-0.5,0.61-0.76,0.89c-0.89,1-1.86,1.93-2.89,2.79c-0.26,0.22-0.22,0.54-0.05,0.75
	c0,0,0,0,0,0c0.32,1.58,0.39,3.2,0.51,4.81c0.06,0.78,0.12,1.57,0.18,2.35c0.03,0.42,0.07,0.84,0.1,1.27c0,0.06,0.04,0.3-0.02,0.35
	c-0.08,0.08-0.34,0-0.46-0.03c-2.34-1.07-4.67-2.15-7.01-3.22c-0.21-0.1-0.4-0.04-0.53,0.08c-0.04,0.01-0.08,0.02-0.12,0.04
	c-1.17,0.67-2.34,1.33-3.51,2c-1.01,0.58-2.07,1.15-3.24,1.3c-0.27-0.64,0.12-1.62,0.25-2.25c0.19-0.89,0.38-1.78,0.57-2.67
	c0.35-1.63,0.7-3.26,1.05-4.88c0.03-0.02,0.07-0.04,0.1-0.08c0.16-0.19,0.16-0.55-0.07-0.7c-1.07-0.73-2.14-1.46-3.21-2.19
	c-0.53-0.36-1.05-0.72-1.58-1.08c-0.25-0.17-0.51-0.34-0.76-0.52c-0.09-0.07-0.42-0.27-0.36-0.42c0.05-0.13,0.05-0.27,0.01-0.39
	c0.38-0.23,0.84-0.22,1.28-0.23c0.66-0.01,1.31-0.03,1.97-0.04c1.31-0.03,2.62-0.05,3.93-0.08c0.31-0.01,0.45-0.24,0.44-0.48
	c0.06-0.03,0.13-0.08,0.18-0.15c1.68-2.35,2.04-5.35,3.72-7.7c0.05-0.07,0.08-0.14,0.09-0.21c0.68,0.47,1.07,1.16,1.42,1.9
	c0.42,0.89,0.82,1.79,1.18,2.7c0.64,1.58,1.18,3.21,1.73,4.82c0.44,0.22,0.86,0.47,1.26,0.75c0.01-0.07,0-0.15-0.02-0.23
	c-0.2-0.58-0.39-1.15-0.59-1.73c1.98,0.03,3.96,0.05,5.94,0.08C26.51,11.9,26.46,12.32,26.33,12.7z"/>
</svg>
