<?xml version="1.0" encoding="utf-8"?>
<!-- Generator: Adobe Illustrator 26.2.1, SVG Export Plug-In . SVG Version: 6.00 Build 0)  -->
<svg version="1.1" id="Слой_1" xmlns="http://www.w3.org/2000/svg" x="0px" y="0px"
     viewBox="0 0 30 30" style="enable-background:new 0 0 30 30;" xml:space="preserve">
<style type="text/css">
	.st0{fill:#060606;}
</style>
    <g>
	<path class="st0" d="M11.08,8.67c-0.1-0.9-0.45-1.73-1.25-2.3C9.66,6.26,9.45,6.22,9.26,6.27c-0.11-0.05-0.24-0.09-0.37-0.1
		C7.53,5.83,6.09,5.9,4.8,6.47C4.54,6.58,4.38,6.83,4.39,7.1C4.12,7.82,4.02,8.55,3.99,9.31c-0.03,0.72-0.08,1.47,0.08,2.17
		c0.02,0.08,0.05,0.15,0.07,0.23c0,0.08,0,0.16,0,0.23c0,0.1,0.06,0.21,0.12,0.31c0.36,0.98,1.39,1.45,2.35,1.66
		c0.37,0.15,0.76,0.23,1.15,0.17c0.05-0.01,0.08-0.02,0.12-0.03c0.23-0.01,0.45-0.03,0.68-0.1c0.44-0.13,0.83-0.4,1.2-0.67
		c0.15-0.02,0.3-0.08,0.38-0.21c0.01,0,0.02,0.01,0.04,0.01c0.05-0.07,0.08-0.14,0.1-0.23c0.27-0.44,0.53-0.89,0.65-1.41
		c0.02-0.07,0.02-0.15,0.03-0.22c0.06-0.18,0.07-0.37,0.08-0.57c0,0,0,0,0,0c0.04-0.39,0.06-0.78,0.07-1.16c0-0.02,0-0.04,0-0.06
		c0.01-0.04,0-0.09,0.02-0.13C11.2,9.07,11.16,8.86,11.08,8.67z"/>
        <path class="st0" d="M11.11,15.61c-0.06-0.27-0.11-0.53-0.14-0.81c0,0,0,0,0,0c-0.02-0.05-0.05-0.1-0.07-0.14
		c-0.05-0.04-0.1-0.09-0.12-0.16c0,0,0,0.01,0,0.01c-0.02-0.05-0.05-0.09-0.07-0.13c-0.01-0.01-0.02-0.02-0.03-0.03
		c-0.01-0.01-0.02-0.01-0.03-0.02c-0.04-0.01-0.08-0.03-0.13-0.03c-0.03,0-0.06-0.01-0.09-0.01c-0.02,0-0.04-0.02-0.06-0.03
		c-0.08,0.04-0.16,0.06-0.25,0.07c0.08-0.01-0.11,0.04-0.11,0.04c-0.05,0.01-0.09,0.03-0.14,0.05c0.05-0.02-0.04,0.02-0.05,0.03
		c-0.06,0.03-0.11,0.06-0.16,0.09c-0.2,0.11-0.38,0.24-0.58,0.35c-0.44,0.27-0.89,0.44-1.41,0.47c-1.06,0.08-2.11-0.46-2.93-1.08
		c-0.11-0.08-0.19-0.19-0.25-0.31c-0.12,0.02-0.24,0.09-0.36,0.2c-0.02,0.01-0.04,0-0.06,0.01c-0.19,0.08-0.37,0.17-0.56,0.26
		c-0.05,0.02-0.09,0.04-0.14,0.06c-0.41,0.2-0.82,0.41-1.18,0.69c-0.59,0.45-1.06,1.05-1.36,1.72c-0.08,0.17-0.12,0.35-0.17,0.53
		c-0.18,0.16-0.19,0.39-0.19,0.63c-0.21,1.03-0.16,2.12-0.08,3.17c-0.02,0.08-0.04,0.15-0.03,0.23c0.03,0.36,0.34,0.59,0.68,0.58
		c1.55-0.02,3.1-0.05,4.65-0.07c0.27,0,0.49-0.23,0.56-0.48c0.03,0,0.06,0,0.09,0c0-0.05,0-0.09,0.01-0.14
		c0.17-0.53,0.29-1.09,0.58-1.57c0.17-0.27,0.4-0.51,0.6-0.75c0.21-0.25,0.41-0.5,0.62-0.74c0.39-0.45,0.89-0.71,1.38-1.04
		c0.46-0.31,0.87-0.63,1.39-0.82c0.06-0.02,0.13-0.02,0.19-0.02c0-0.02-0.01-0.03-0.01-0.05C11.23,16.12,11.17,15.88,11.11,15.61z"
        />
        <path class="st0" d="M22.67,20.45c-0.43-0.68-0.98-1.28-1.59-1.8c-0.63-0.53-1.32-0.99-1.93-1.54c-0.22-0.2-0.46-0.2-0.66-0.09
		c-0.02-0.02-0.04-0.05-0.06-0.08c-0.14,0.05-0.28,0.09-0.43,0.1c-0.01,0-0.01,0-0.02,0c-0.47,0.26-0.92,0.54-1.41,0.75
		c-0.54,0.23-1.08,0.3-1.66,0.29c-0.3,0-0.61-0.01-0.92-0.05c-0.3,0-0.62,0-0.91-0.08c-0.17-0.05-0.29-0.15-0.43-0.25
		c-0.13-0.09-0.27-0.13-0.41-0.18c-0.16-0.06-0.32-0.13-0.47-0.21c-0.09-0.05-0.18-0.12-0.29-0.15c-0.02,0.01-0.04,0.02-0.06,0.03
		c-1.2,0.88-2.47,1.73-3.34,2.97c-0.43,0.61-0.76,1.28-1,1.98c-0.06,0.01-0.12,0.02-0.19,0.01c0,0.2,0.01,0.4,0.01,0.6
		c-0.11,0.42-0.19,0.85-0.23,1.28c-0.02,0.29,0.11,0.56,0.36,0.68c0.63,0.73,1.73,0.61,2.69,0.6c1.46-0.01,2.92-0.02,4.38-0.03
		c2.82-0.02,5.65-0.04,8.47-0.06c0,0,0,0.01,0,0.01c0.42-0.07,0.84-0.09,1.26-0.07C23.89,23.51,23.58,21.88,22.67,20.45z"/>
        <path class="st0" d="M18.78,11.23c-0.01-0.34-0.06-0.67-0.05-1.01c0.01-0.18,0.03-0.34-0.01-0.52c-0.04-0.17-0.11-0.33-0.17-0.5
		c-0.05-0.13,0-0.21,0.07-0.28c-0.46-0.91-1.27-1.68-2.24-1.88c-0.03-0.01-0.05-0.01-0.08-0.01c-0.2-0.03-0.41-0.04-0.63-0.02
		C15.18,7,14.68,7,14.19,6.96c-0.18-0.01-0.3,0-0.4,0.12c-0.91,0.22-1.65,0.92-2.07,1.74c-0.14,0.28-0.24,0.57-0.31,0.88
		c-0.14,0.15-0.13,0.35-0.13,0.55c0,0.18,0,0.37,0,0.55c0,0.15-0.01,0.29,0,0.44c0.01,0.8,0.01,1.6,0.01,2.4
		c0.05,0.12,0.11,0.23,0.16,0.35c0.08,0.2,0.11,0.4,0.14,0.61c0.04,0.08,0.08,0.16,0.12,0.24c0.06,0.12,0.11,0.23,0.15,0.36
		c0.03,0.1,0.04,0.2,0.08,0.29c-0.02-0.05,0,0.01,0.01,0.02c0.01,0.02,0.03,0.04,0.04,0.06c0.01,0.02,0.02,0.03,0,0.01
		c0.02,0.02,0.03,0.04,0.05,0.06c0.07,0.07,0.14,0.14,0.21,0.2c0.08,0.07,0.14,0.14,0.22,0.2c0.36,0.26,0.77,0.47,1.21,0.58
		c0.33,0.19,0.72,0.2,1.15,0.21c0.46,0.01,0.89-0.02,1.31-0.2c0.43-0.19,0.83-0.46,1.25-0.69c0.03-0.02,0.06-0.01,0.08-0.02
		c0.01-0.05,0.02-0.1,0.05-0.13c0.23-0.2,0.48-0.39,0.67-0.64c0.16-0.2,0.22-0.38,0.27-0.64c0.04-0.24,0.06-0.48,0.13-0.71
		c0.05-0.15,0.13-0.28,0.22-0.4C18.79,12.67,18.8,11.95,18.78,11.23z"/>
        <path class="st0" d="M26.39,8.39c-0.02-0.06-0.05-0.12-0.08-0.18c0,0,0-0.01,0-0.01c0.05-0.27-0.1-0.53-0.33-0.65
		c-0.1-0.16-0.22-0.32-0.34-0.46c-0.32-0.5-0.89-0.95-1.34-0.95c-0.98-0.01-1.96-0.01-2.94,0c-0.12-0.03-0.24-0.04-0.35,0.02
		c-0.52,0.26-0.94,0.61-1.25,1.11c-0.32,0.51-0.43,1.07-0.47,1.66c-0.05,0.06-0.08,0.13-0.08,0.18c0,0.02,0,0.04,0,0.06
		c0.11,0.29,0.19,0.58,0.17,0.9c-0.02,0.36,0.02,0.72,0.03,1.08c0.01,0.22,0,0.43,0,0.65c0.01-0.05,0.02-0.1,0.02-0.14l0.1-0.01
		c0,0,0,0,0,0.01c0.03,0.11,0.05,0.23,0.08,0.34c-0.09,0.44,0.1,0.74,0.35,1.01c0.01,0.01,0.02,0.02,0.02,0.02
		c0.03,0.04,0.07,0.07,0.1,0.11c0,0,0,0,0,0c0.49,0.88,1.67,1.07,2.62,1.02c1.07-0.06,2.13-0.46,2.99-1.1l0,0
		c0.38-0.2,0.64-0.55,0.7-0.99c0.02-0.12,0.02-0.24,0.01-0.36c0.01-0.02,0.02-0.04,0.02-0.06C26.59,10.56,26.72,9.45,26.39,8.39z"/>
        <path class="st0" d="M29.95,20.57c-0.03-1.07-0.06-2.14-0.08-3.21c0-0.15-0.08-0.29-0.2-0.39c0.02-0.2-0.04-0.4-0.21-0.52
		c-0.45-0.32-0.89-0.66-1.31-1.02c0,0,0,0-0.01-0.01c-0.04-0.03-0.08-0.06-0.12-0.1c-0.22-0.19-0.44-0.4-0.66-0.6
		c-0.11-0.1-0.21-0.21-0.32-0.32c-0.05-0.05-0.1-0.11-0.16-0.16c-0.02-0.02-0.05-0.05-0.07-0.07c-0.02-0.02-0.13-0.14-0.02-0.02
		c-0.12-0.13-0.23-0.22-0.4-0.26c-0.16-0.03-0.36,0.01-0.48,0.11c-0.08,0.06-0.14,0.16-0.19,0.26c-0.82,0.41-1.67,0.8-2.58,0.94
		c-1.13,0.17-2.17-0.13-3.01-0.89c0,0,0,0,0,0c-0.07-0.02-0.13-0.04-0.2-0.05c-0.01,0-0.02,0-0.03,0c-0.03,0-0.06,0-0.1,0
		c-0.02,0-0.05,0-0.07,0c-0.01,0-0.03,0.01-0.04,0.01c-0.03,0.01-0.05,0.01-0.08,0.02c-0.01,0-0.02,0.01-0.03,0.01
		c-0.05,0.02-0.1,0.05-0.14,0.08c-0.01,0.01-0.03,0.02-0.04,0.03c0,0-0.01,0.01-0.01,0.01c0,0-0.01,0-0.01,0.01
		c-0.01,0.01-0.02,0.02-0.04,0.03c-0.05,0.04-0.09,0.09-0.13,0.13c-0.01,0.01-0.01,0.01-0.02,0.02c0,0,0,0,0,0
		c-0.02,0.03-0.04,0.06-0.06,0.09c-0.03,0.04-0.07,0.05-0.11,0.08c0,0.02-0.01,0.05-0.01,0.07c-0.05,0.22-0.16,0.4-0.29,0.57
		c0,0.02,0.02,0.03,0.02,0.05c0,0.07-0.04,0.15-0.09,0.21c0,0,0.01-0.01,0.01-0.01c-0.01,0.01-0.01,0.01-0.01,0.02c0,0,0,0,0,0.01
		c0,0,0,0,0,0c0,0,0,0,0,0.01c0,0.06,0,0.12,0,0.18c0.06,0.04,0.13,0.08,0.19,0.11c0.04,0.02,0.07,0.06,0.09,0.09
		c1.1,0.8,2.32,1.45,3.33,2.37c0.41,0.38,0.77,0.81,1.08,1.27c0.05,0.12,0.09,0.24,0.16,0.35c0.06,0.09,0.14,0.18,0.21,0.28
		c0.21,0.38,0.39,0.77,0.53,1.18c0,0.3,0.21,0.58,0.51,0.62c1.19,0.19,2.4,0.19,3.6,0.04c0.6-0.07,1.23-0.24,1.53-0.82
		C30.01,21.13,30.03,20.84,29.95,20.57z"/>
        <path d="M19.91,17.32c0.07-0.07,0.13-0.2,0.21-0.21"/>
</g>
</svg>
