<?xml version="1.0" encoding="utf-8"?>
<!-- Generator: Adobe Illustrator 26.2.1, SVG Export Plug-In . SVG Version: 6.00 Build 0)  -->
<svg version="1.1" xmlns="http://www.w3.org/2000/svg" xmlns:xlink="http://www.w3.org/1999/xlink" x="0px" y="0px"
	 viewBox="0 0 30 30" style="enable-background:new 0 0 30 30;" xml:space="preserve">
<style type="text/css">
	.st0{display:none;}
	.st1{display:inline;}
	.st2{fill:#020202;}
</style>
<g id="Слой_1" class="st0">
	<g class="st1">
		<path class="st2" d="M22.16,11.99c0.02-0.13,0.04-0.21,0.05-0.32c0.32,0,0.63,0,0.98,0c0.02,0.09,0.05,0.19,0.08,0.31
			c0.31,0,0.6,0,0.92,0c0.03,0.11,0.05,0.2,0.08,0.32c0.19,0,0.38,0,0.59,0c0.03,0.12,0.05,0.21,0.07,0.34c0.19,0,0.39,0,0.5,0
			c0.14,0.17,0.24,0.29,0.34,0.41c0.03-0.02,0.06-0.04,0.09-0.06c0.02,0.09,0.04,0.19,0.06,0.3c0.09,0.01,0.18,0.03,0.3,0.05
			c0,0.2,0,0.39,0,0.59c0.12,0.03,0.22,0.06,0.33,0.09c0,0.19,0,0.38,0,0.58c0.12,0.03,0.22,0.06,0.33,0.09c0,0.88,0,1.74,0,2.63
			c-0.1,0.03-0.2,0.05-0.32,0.08c0,0.19,0,0.38,0,0.58c-0.12,0.03-0.22,0.05-0.34,0.08c0,0.2,0,0.38,0,0.59
			c-0.11,0.03-0.2,0.05-0.32,0.08c0,0.19,0,0.38,0,0.58c-0.02-0.01-0.05-0.03-0.07-0.04c-0.12,0.12-0.24,0.24-0.36,0.36
			c0.02,0.02,0.03,0.04,0.05,0.06c-0.09,0.01-0.17,0.02-0.29,0.04c0,0.2,0,0.39,0,0.61c-0.21,0.04-0.46,0.03-0.34,0.35
			c-0.13,0.02-0.21,0.03-0.33,0.05c0,0.2,0,0.39,0,0.51c-0.17,0.14-0.29,0.24-0.41,0.34c0.02,0.03,0.04,0.06,0.06,0.09
			c-0.09,0.02-0.19,0.04-0.3,0.06c-0.01,0.09-0.02,0.18-0.04,0.29c-0.1,0.01-0.19,0.03-0.29,0.04c-0.01,0.1-0.03,0.19-0.04,0.29
			c-0.1,0.01-0.19,0.03-0.29,0.04c-0.02,0.1-0.03,0.19-0.05,0.28c-0.02-0.02-0.04-0.03-0.06-0.05c-0.11,0.11-0.22,0.22-0.33,0.33
			c0.01,0.02,0.03,0.04,0.04,0.06c-0.21,0-0.41,0-0.64,0c-0.02-0.1-0.03-0.19-0.05-0.29c-0.09-0.01-0.18-0.03-0.28-0.04
			c-0.02-0.09-0.03-0.18-0.05-0.29c-0.1-0.02-0.19-0.03-0.3-0.05c0-0.21,0-0.39,0-0.59c-0.18-0.07-0.47-0.01-0.33-0.36
			c-0.13-0.02-0.21-0.03-0.32-0.05c-0.02-0.09-0.03-0.18-0.05-0.29c-0.1-0.02-0.19-0.03-0.3-0.05c0-0.21,0-0.39,0-0.49
			c-0.18-0.17-0.3-0.29-0.42-0.4c0.02-0.02,0.03-0.04,0.05-0.06c-0.09-0.02-0.19-0.03-0.3-0.05c0-0.21,0-0.39,0-0.49
			c-0.18-0.17-0.3-0.29-0.42-0.4c0.02-0.02,0.03-0.04,0.05-0.06c-0.09-0.01-0.17-0.03-0.29-0.04c0-0.19,0-0.39,0-0.6
			c-0.12-0.03-0.21-0.05-0.34-0.08c0-0.19,0-0.39,0-0.59c-0.12-0.03-0.21-0.05-0.34-0.08c0-0.3,0-0.61,0-0.93
			c-0.12-0.03-0.21-0.05-0.32-0.07c0-0.43,0-0.86,0-1.31c0.09-0.02,0.18-0.04,0.31-0.06c0-0.3,0-0.61,0-0.93
			c0.12-0.02,0.21-0.04,0.33-0.06c0.01-0.2,0.02-0.4,0.03-0.61c0.1-0.02,0.2-0.03,0.3-0.05c0.01-0.09,0.03-0.18,0.04-0.28
			c0.09-0.02,0.19-0.03,0.29-0.05c0.01-0.09,0.03-0.18,0.04-0.28c0.09-0.02,0.18-0.03,0.29-0.05c0.01-0.09,0.03-0.17,0.04-0.28
			c0.09-0.02,0.18-0.04,0.29-0.06c0.01-0.09,0.03-0.19,0.05-0.3c0.2,0,0.39,0,0.59,0c0.03-0.12,0.06-0.22,0.09-0.33
			C21.31,11.99,21.72,11.99,22.16,11.99z M25.18,16.3c0-0.21,0-0.39,0-0.58c-0.1-0.02-0.2-0.03-0.32-0.05c0-0.32,0-0.63,0-0.94
			c-0.12-0.02-0.22-0.04-0.31-0.05c-0.01-0.1-0.03-0.19-0.04-0.27c-0.02,0.02-0.04,0.03-0.06,0.05c-0.12-0.12-0.23-0.24-0.35-0.36
			c0.01-0.02,0.03-0.05,0.04-0.07c-0.2,0-0.39,0-0.58,0c-0.03-0.12-0.05-0.22-0.07-0.3c-0.53,0-1.04,0-1.57,0
			c-0.02,0.11-0.03,0.2-0.05,0.32c-0.21,0-0.41,0-0.61,0c-0.02,0.12-0.03,0.22-0.05,0.31c-0.1,0.01-0.19,0.03-0.29,0.04
			c-0.01,0.1-0.03,0.2-0.04,0.28c-0.11,0.03-0.21,0.05-0.33,0.07c0,0.21,0,0.41,0,0.59c-0.12,0.03-0.22,0.05-0.31,0.07
			c0,0.42,0,0.82,0,1.23c0.1,0.02,0.2,0.03,0.32,0.05c0,0.32,0,0.63,0,0.95c0.12,0.02,0.22,0.03,0.31,0.05
			c0.01,0.1,0.03,0.19,0.04,0.29c0.1,0.02,0.19,0.03,0.32,0.05c0,0.21,0,0.41,0,0.61c0.12,0.02,0.22,0.04,0.31,0.05
			c0.01,0.1,0.03,0.19,0.04,0.29c0.1,0.02,0.2,0.03,0.3,0.05c0.01,0.22,0.02,0.41,0.03,0.63c0.25-0.04,0.37,0.07,0.33,0.32
			c0.12,0.02,0.21,0.04,0.31,0.05c-0.02,0.02-0.03,0.04-0.05,0.06c0.09,0.1,0.17,0.19,0.32,0.36c0.04-0.22,0.05-0.31,0.07-0.41
			c0.1-0.02,0.2-0.04,0.32-0.06c0-0.21,0-0.41,0-0.6c0.03,0.02,0.06,0.03,0.08,0.05c0.11-0.12,0.21-0.23,0.32-0.35
			c-0.01-0.01-0.03-0.03-0.04-0.04c0.09-0.02,0.19-0.04,0.31-0.06c0-0.21,0-0.41,0-0.6c0.12-0.03,0.22-0.05,0.31-0.07
			c0.02-0.1,0.03-0.19,0.04-0.27c0.11-0.02,0.2-0.04,0.32-0.07c0-0.21,0-0.41,0-0.59c0.12-0.03,0.22-0.05,0.34-0.08
			c0-0.32,0-0.63,0-0.93C24.99,16.33,25.08,16.31,25.18,16.3z"/>
		<path class="st2" d="M11.56,10.33c-0.12,0.02-0.21,0.04-0.31,0.05c-0.02,0.09-0.04,0.18-0.06,0.29c-0.09,0.01-0.19,0.03-0.3,0.04
			c0,0.2,0,0.39,0,0.6c-0.11,0.03-0.2,0.05-0.31,0.07c-0.02,0.08-0.03,0.18-0.05,0.28c-0.09,0.01-0.17,0.03-0.28,0.04
			c-0.02,0.09-0.03,0.18-0.06,0.29c-0.09,0.01-0.19,0.03-0.3,0.04c0,0.2,0,0.39,0,0.6c-0.11,0.03-0.2,0.05-0.31,0.07
			C9.57,12.8,9.55,12.9,9.53,13c-0.09,0.01-0.17,0.03-0.28,0.04c-0.02,0.09-0.04,0.18-0.06,0.29c-0.09,0.01-0.17,0.03-0.28,0.05
			c-0.02,0.09-0.04,0.18-0.04,0.18c-0.17,0.16-0.29,0.27-0.41,0.37c0.02,0.03,0.03,0.05,0.05,0.08c-0.21,0-0.41,0-0.54,0
			c-0.16-0.16-0.28-0.28-0.39-0.4c-0.02,0.02-0.04,0.03-0.06,0.05c-0.01-0.09-0.02-0.17-0.04-0.27c-0.1-0.01-0.19-0.03-0.29-0.04
			c-0.01-0.1-0.03-0.19-0.04-0.29c-0.1-0.02-0.19-0.03-0.31-0.05c0-0.21,0-0.4,0-0.61c-0.12-0.02-0.22-0.03-0.32-0.04
			c-0.01-0.1-0.03-0.19-0.04-0.29c-0.1-0.01-0.19-0.03-0.29-0.04c-0.01-0.1-0.03-0.18-0.04-0.29c-0.1-0.02-0.19-0.03-0.31-0.05
			c0-0.21,0-0.4,0-0.61c-0.12-0.02-0.22-0.03-0.32-0.04c-0.01-0.1-0.03-0.19-0.04-0.29c-0.1-0.02-0.19-0.03-0.3-0.05
			c0-0.2,0-0.39,0-0.6c-0.11-0.02-0.2-0.05-0.31-0.07C4.86,9.92,4.84,9.83,4.81,9.71C4.73,9.7,4.63,9.68,4.52,9.66
			c0-0.2,0-0.39,0-0.59C4.4,9.04,4.3,9.02,4.19,8.99c0-1.33,0-2.65,0-3.98c0.1-0.02,0.18-0.03,0.29-0.05
			C4.5,4.87,4.52,4.78,4.54,4.67c0.09-0.01,0.18-0.02,0.28-0.04c0.01-0.1,0.03-0.19,0.04-0.29c0.1-0.01,0.19-0.03,0.29-0.04
			C5.17,4.19,5.18,4.11,5.2,4c0.1-0.01,0.19-0.03,0.29-0.05c0.01-0.1,0.02-0.18,0.04-0.29c0.09-0.02,0.19-0.03,0.29-0.05
			c0.01-0.1,0.03-0.18,0.05-0.3c0.19,0,0.39,0,0.6,0C6.49,3.21,6.52,3.11,6.54,3c1.09,0,2.19,0,3.31,0c0.02,0.08,0.04,0.18,0.07,0.3
			c0.19,0,0.38,0,0.59,0c0.04,0.21,0.03,0.46,0.35,0.34c0.02,0.13,0.03,0.21,0.04,0.32C11.01,3.97,11.1,3.99,11.2,4
			c0.01,0.1,0.02,0.18,0.04,0.29c0.1,0.02,0.19,0.03,0.3,0.05c0,0.22,0.04,0.39,0.22,0.34c0.16,0.16,0.27,0.27,0.38,0.39
			c0.03-0.02,0.05-0.03,0.08-0.05c0,0.31,0,0.61,0,0.94c0.12,0.02,0.21,0.04,0.32,0.06c0,0.66,0,1.32,0,1.99
			c-0.1,0.02-0.19,0.03-0.31,0.06c0,0.31,0,0.62,0,0.94c-0.12,0.02-0.22,0.04-0.33,0.05c0,0.2,0,0.39,0,0.59
			c-0.12,0.03-0.22,0.06-0.34,0.09C11.56,9.92,11.56,10.11,11.56,10.33z M9.85,9.28c0-0.21,0-0.4,0-0.6
			c0.12-0.02,0.22-0.04,0.33-0.07c0-0.21,0-0.4,0-0.6c0.12-0.03,0.22-0.05,0.3-0.06c0-0.65,0-1.27,0-1.9
			c-0.11-0.03-0.21-0.05-0.32-0.07c0-0.21,0-0.4,0-0.61C9.94,5.36,9.74,5.35,9.55,5.34C9.56,5.32,9.58,5.3,9.59,5.28
			C9.48,5.17,9.37,5.05,9.26,4.94C9.24,4.96,9.22,4.98,9.2,4.99C9.19,4.9,9.17,4.8,9.15,4.71c-0.54,0-1.05,0-1.57,0
			c-0.02,0.11-0.04,0.2-0.06,0.32c-0.21,0-0.41,0-0.6,0c-0.03,0.12-0.05,0.22-0.06,0.3c-0.1,0.02-0.19,0.03-0.28,0.04
			c-0.02,0.11-0.04,0.2-0.05,0.29C6.42,5.68,6.33,5.7,6.25,5.71C6.27,5.73,6.28,5.75,6.3,5.77C6.18,5.89,6.06,6.01,5.9,6.16
			c0,0.54,0,1.16,0,1.79C6.01,7.98,6.11,8,6.23,8.03c0,0.2,0,0.39,0,0.58C6.35,8.64,6.45,8.67,6.56,8.7c0,0.2,0,0.39,0,0.59
			c0.11,0.02,0.21,0.03,0.3,0.04C6.88,9.45,6.9,9.54,6.92,9.63c0.1,0.02,0.19,0.03,0.29,0.05c0.01,0.21,0.02,0.41,0.03,0.62
			c0.11,0.02,0.2,0.03,0.29,0.04c0.02,0.11,0.04,0.21,0.06,0.29c0.1,0.02,0.19,0.03,0.31,0.05c0,0.21,0,0.42,0,0.61
			c0.23,0,0.41,0,0.62,0c0-0.22,0-0.42,0-0.61c0.03,0.02,0.05,0.03,0.08,0.05c0.11-0.11,0.22-0.23,0.37-0.39
			c0.15,0.02,0.26-0.09,0.22-0.33C9.3,9.99,9.4,9.97,9.52,9.95c0-0.21,0-0.41,0-0.61C9.64,9.32,9.73,9.31,9.85,9.28z"/>
		<path class="st2" d="M14.55,17.69c0,0.32,0,0.64,0,0.89c-0.16,0.14-0.28,0.24-0.4,0.34c0.02,0.03,0.04,0.06,0.05,0.09
			c-0.31,0-0.61,0-0.93,0c-0.03,0.12-0.05,0.21-0.07,0.33c-0.42,0-0.85,0-1.22,0c-0.15-0.15-0.27-0.27-0.38-0.39
			c-0.02,0.01-0.04,0.03-0.06,0.04c0-0.21,0-0.41,0-0.64c0.1-0.02,0.19-0.03,0.29-0.05c0.02-0.1,0.03-0.19,0.05-0.3
			c0.21,0,0.39,0,0.6,0c0.02-0.11,0.05-0.2,0.07-0.33c0.66,0,1.32,0,1.98,0L14.55,17.69z"/>
		<path class="st2" d="M8.2,20.01c0-0.34,0-0.66,0-0.9c0.16-0.14,0.28-0.25,0.39-0.35c-0.02-0.03-0.04-0.06-0.05-0.09
			c0.31,0,0.62,0,0.93,0c0.03-0.12,0.05-0.21,0.07-0.33c0.43,0,0.85,0,1.21,0c0.16,0.16,0.27,0.28,0.45,0.46c0,0.1,0,0.31,0,0.44
			c-0.16,0.14-0.28,0.25-0.39,0.35c0.02,0.03,0.03,0.06,0.05,0.09c-0.2,0-0.39,0-0.6,0c-0.03,0.12-0.05,0.21-0.07,0.33
			C9.54,20.01,8.89,20.01,8.2,20.01z"/>
		<path class="st2" d="M9.19,22.01c0.02,0.11,0.03,0.2,0.05,0.31c0.31,0,0.61,0,0.92,0c0.08,0.17,0.03,0.47,0.37,0.33
			c0,0.36,0,0.68,0,0.92c-0.16,0.16-0.28,0.28-0.46,0.45c-0.11,0-0.32,0-0.54,0c-0.02-0.11-0.03-0.2-0.05-0.31
			c-0.42,0-0.83,0-1.16,0c-0.17-0.17-0.28-0.3-0.4-0.42c-0.02,0.02-0.05,0.03-0.07,0.05c0-0.32,0-0.64,0-0.87
			c0.16-0.16,0.28-0.28,0.46-0.45C8.54,22.01,8.86,22.01,9.19,22.01z"/>
		<path class="st2" d="M14.53,17.67c-0.01-0.09-0.02-0.18-0.03-0.28c-0.1-0.02-0.19-0.04-0.31-0.06c0-0.2,0-0.4,0-0.61
			c-0.12-0.02-0.21-0.04-0.33-0.06c0-0.21-0.04-0.39-0.33-0.3c0-0.36,0-0.68,0-1.02c0.44,0,0.87,0,1.33,0
			c0.02,0.09,0.03,0.18,0.05,0.3c0.25-0.04,0.36,0.07,0.32,0.32c0.11,0.02,0.19,0.03,0.3,0.04c0.02,0.09,0.04,0.18,0.06,0.29
			c0.09,0.02,0.19,0.03,0.29,0.05c0,0.33,0,0.65,0,0.89c-0.16,0.15-0.28,0.25-0.4,0.36c0.02,0.03,0.04,0.06,0.05,0.09
			c-0.33,0-0.66,0-0.99,0C14.55,17.69,14.53,17.67,14.53,17.67z"/>
		<path class="st2" d="M17.09,23.32c0.16,0.18,0.27,0.3,0.37,0.41c0.03-0.02,0.05-0.03,0.08-0.05c0,0.21,0,0.41,0,0.55
			c-0.16,0.15-0.28,0.27-0.46,0.45c-0.66,0-1.42,0-2.11,0c-0.14-0.16-0.24-0.28-0.35-0.39c-0.03,0.02-0.06,0.03-0.08,0.05
			c0-0.33,0-0.65,0-1c0.21-0.01,0.41-0.02,0.62-0.03c0.02-0.1,0.03-0.2,0.05-0.29c0.27-0.09,0.41-0.02,0.36,0.3
			C16.12,23.32,16.65,23.32,17.09,23.32z"/>
		<path class="st2" d="M7.87,21.01c-0.11,0.02-0.19,0.03-0.31,0.05c0,0.42,0,0.84,0,1.28c-0.35,0-0.66,0-0.92,0
			C6.5,22.2,6.38,22.07,6.2,21.88c0-0.43,0-0.97,0-1.53c0.09-0.02,0.19-0.04,0.3-0.06c0.01-0.2,0.02-0.4,0.03-0.62
			c0.45,0,0.88,0,1.34,0C7.87,20.12,7.87,20.55,7.87,21.01z"/>
		<path class="st2" d="M10.87,14.34c0.11,0,0.21,0,0.33,0c0.02,0.1,0.03,0.2,0.05,0.32c0.54,0,1.07,0,1.62,0c0,0.46,0,0.89,0,1.34
			c-0.77,0-1.54,0-2.24,0c-0.14-0.15-0.25-0.27-0.36-0.38c-0.02,0.02-0.05,0.03-0.07,0.05c0-0.32,0-0.64,0-0.95
			C10.39,14.51,10.9,14.91,10.87,14.34z"/>
		<path class="st2" d="M11.2,23.98c0-0.32,0-0.63,0-0.97c0.21-0.01,0.41-0.02,0.62-0.03c0.02-0.1,0.03-0.2,0.04-0.28
			c0.29-0.12,0.38,0.01,0.37,0.29c0.55,0,1.08,0,1.63,0c0,0.46,0,0.89,0,1.35c-0.76,0-1.54,0-2.25,0c-0.13-0.14-0.23-0.26-0.34-0.38
			C11.26,23.96,11.23,23.97,11.2,23.98z"/>
		<path class="st2" d="M18.2,24.68c0-0.45,0-0.88,0-1.33c0.78,0,1.54,0,2.25,0c0.13,0.15,0.24,0.27,0.34,0.38
			c0.03-0.02,0.06-0.03,0.08-0.05c0,0.33,0,0.65,0,1C19.99,24.68,19.12,24.68,18.2,24.68z"/>
		<path class="st2" d="M7.54,16.01c-0.02-0.1-0.03-0.19-0.05-0.3c-0.1-0.02-0.18-0.03-0.29-0.05c0-0.33,0-0.65,0-1
			c0.21-0.01,0.41-0.02,0.62-0.03c0.02-0.1,0.03-0.2,0.05-0.3c0.33,0,0.65,0,0.99,0c0.02,0.1,0.03,0.19,0.05,0.3
			c0.21,0.01,0.4,0.02,0.62,0.03c0,0.33,0,0.65,0,0.9c-0.15,0.15-0.27,0.27-0.46,0.45C8.64,16.01,8.1,16.01,7.54,16.01z"/>
		<path class="st2" d="M23.42,23.34c0.18,0.18,0.29,0.29,0.47,0.45c0,0.22,0,0.54,0,0.88c-0.78,0-1.54,0-2.34,0
			c0-0.32,0-0.63,0-0.89c0.14-0.14,0.27-0.25,0.39-0.37c-0.02-0.02-0.03-0.05-0.05-0.07C22.43,23.34,22.97,23.34,23.42,23.34z"/>
		<path class="st2" d="M21.2,16.4c-0.12-0.02-0.21-0.04-0.32-0.06c0-0.22,0-0.42,0-0.65c0.1-0.02,0.19-0.03,0.3-0.05
			c0.01-0.21,0.02-0.4,0.02-0.51c0.17-0.16,0.29-0.26,0.4-0.37c-0.02-0.03-0.03-0.06-0.05-0.09c0.2,0,0.39,0,0.6,0
			c0.03-0.12,0.05-0.21,0.07-0.33c0.21,0,0.41,0,0.64,0c0.02,0.09,0.04,0.18,0.06,0.31c0.19,0,0.39,0,0.5,0
			c0.14,0.17,0.24,0.29,0.34,0.41c0.03-0.02,0.06-0.04,0.09-0.06c0.02,0.09,0.04,0.19,0.06,0.3c0.09,0.02,0.18,0.03,0.29,0.05
			c0,0.56,0,1.1,0,1.65c-0.1,0.02-0.2,0.03-0.3,0.05c-0.01,0.1-0.03,0.18-0.04,0.29c-0.1,0.01-0.19,0.03-0.29,0.04
			c-0.02,0.1-0.03,0.19-0.04,0.29c-0.54,0-1.08,0-1.56,0c-0.15-0.15-0.26-0.27-0.38-0.39c-0.07-0.16-0.11-0.34-0.41-0.24
			C21.2,16.8,21.2,16.6,21.2,16.4z"/>
		<path class="st2" d="M9.87,7.67c-0.11,0.02-0.2,0.03-0.3,0.05c-0.01,0.2-0.02,0.4-0.02,0.52c-0.16,0.14-0.28,0.24-0.4,0.34
			C9.16,8.61,9.18,8.64,9.2,8.67c-0.54,0-1.08,0-1.65,0C7.53,8.58,7.5,8.48,7.48,8.37c-0.2-0.01-0.4-0.02-0.62-0.03
			C6.85,8.13,6.84,7.93,6.83,7.72c-0.1-0.02-0.2-0.03-0.3-0.05c0-0.44,0-0.87,0-1.32c0.1-0.02,0.19-0.03,0.31-0.06
			C6.8,6.05,6.9,5.93,7.15,5.97c0.02-0.11,0.03-0.21,0.05-0.32c0.21,0,0.39,0,0.6,0c0.02-0.11,0.05-0.2,0.07-0.32
			c0.2,0,0.41,0,0.64,0c0.02,0.09,0.05,0.19,0.08,0.31c0.19,0,0.38,0,0.47,0c0.17,0.18,0.29,0.3,0.41,0.42
			c0.06,0.16,0.11,0.33,0.4,0.25C9.87,6.78,9.87,7.21,9.87,7.67z"/>
	</g>
</g>
<g id="Слой_2">
	<path class="st2" d="M11.89,4.61c-0.91-1.37-2.65-2.12-4.27-1.85C5.83,3.07,4.54,4.3,4.01,6C3.96,6.15,3.97,6.29,4.02,6.43
		c-0.09,0.5-0.15,1.01-0.11,1.52c0.07,0.74,0.36,1.39,0.77,2c0.83,1.23,1.73,2.43,2.59,3.64c0.37,0.52,1.18,0.57,1.58,0.06
		C10.81,11.19,14.08,7.93,11.89,4.61z M9.81,9.18c-0.52,0.75-1.09,1.47-1.67,2.18C7.62,10.63,7.1,9.9,6.58,9.17
		c-0.29-0.4-0.6-0.8-0.67-1.3C5.83,7.26,6,6.64,6.14,6.05c0,0,0-0.01,0-0.01c0.85-1.71,3.58-1.77,4.32,0.12
		C10.87,7.21,10.41,8.3,9.81,9.18z"/>
	<path class="st2" d="M9.89,6.61C9.86,6.48,9.83,6.37,9.78,6.25C9.72,6.15,9.67,6.02,9.59,5.92C9.51,5.82,9.43,5.73,9.34,5.65
		c-0.12-0.1-0.25-0.18-0.4-0.24C8.7,5.33,8.48,5.27,8.23,5.3C7.98,5.33,7.75,5.41,7.54,5.55C7.54,5.56,7.53,5.57,7.52,5.58
		C7.44,5.59,7.36,5.61,7.28,5.63c-0.17,0.06-0.31,0.16-0.43,0.3C6.63,6.15,6.49,6.47,6.43,6.78C6.38,7.07,6.4,7.43,6.52,7.71
		c0.12,0.28,0.3,0.56,0.55,0.74c0.12,0.09,0.25,0.18,0.39,0.23C7.57,8.72,7.69,8.76,7.8,8.79c0.13,0.03,0.27,0.03,0.39,0.03
		c0.09,0,0.18,0,0.27-0.01C8.63,8.78,8.8,8.75,8.95,8.69C9.31,8.54,9.64,8.27,9.79,7.9c0.12-0.31,0.16-0.61,0.15-0.94
		C9.94,6.84,9.91,6.73,9.89,6.61z"/>
	<path class="st2" d="M12.83,15.04c-0.06-0.17-0.16-0.31-0.3-0.43c-0.07-0.05-0.14-0.09-0.22-0.14c-0.16-0.07-0.33-0.1-0.5-0.09
		c-0.38-0.02-0.76-0.04-1.13-0.06c-0.14,0.01-0.27,0.05-0.38,0.12c-0.12,0.05-0.23,0.13-0.31,0.24c-0.08,0.08-0.12,0.18-0.15,0.29
		c-0.06-0.16-0.14-0.31-0.28-0.41c-0.07-0.05-0.14-0.09-0.22-0.14c-0.16-0.07-0.33-0.1-0.5-0.09c-0.24,0.04-0.48,0.05-0.73,0.05
		c-0.1-0.01-0.21-0.02-0.31-0.04c-0.25-0.05-0.55,0.02-0.76,0.17c-0.11,0.07-0.2,0.17-0.26,0.28c-0.08,0.1-0.13,0.22-0.15,0.35
		c-0.04,0.26,0,0.55,0.17,0.76c0.16,0.21,0.37,0.36,0.64,0.4c0.29,0.05,0.59,0.07,0.89,0.07c0.22,0,0.44-0.02,0.66-0.06
		c0.14-0.01,0.27-0.05,0.38-0.12c0.12-0.05,0.23-0.13,0.31-0.24c0.07-0.08,0.11-0.18,0.14-0.28c0.06,0.15,0.16,0.29,0.28,0.4
		c0.07,0.05,0.14,0.09,0.22,0.14c0.16,0.07,0.33,0.1,0.5,0.09c0.38,0.02,0.76,0.04,1.13,0.06c0.14-0.01,0.27-0.05,0.38-0.12
		c0.12-0.05,0.23-0.13,0.31-0.24c0.09-0.1,0.15-0.21,0.18-0.34c0.05-0.12,0.07-0.25,0.05-0.38C12.87,15.21,12.85,15.12,12.83,15.04z
		"/>
	<path class="st2" d="M15.91,16.46c-0.01-0.03-0.02-0.06-0.03-0.08c-0.05-0.1-0.1-0.2-0.16-0.3c-0.07-0.13-0.19-0.23-0.28-0.34
		c-0.05-0.05-0.09-0.09-0.14-0.13c-0.11-0.08-0.22-0.16-0.33-0.23l-0.38-0.25c-0.1-0.09-0.21-0.15-0.34-0.18
		c-0.12-0.05-0.25-0.07-0.38-0.05c-0.14,0.01-0.27,0.05-0.38,0.12c-0.12,0.05-0.23,0.13-0.31,0.24c-0.15,0.2-0.26,0.46-0.23,0.72
		L13,16.24c0.06,0.17,0.16,0.31,0.3,0.43c0.16,0.1,0.31,0.21,0.47,0.31c0.09,0.06,0.18,0.14,0.26,0.21
		c0.02,0.09,0.03,0.18,0.08,0.26c0.02,0.04,0.06,0.07,0.08,0.1c-0.16-0.07-0.32-0.1-0.5-0.09c-0.55,0.01-1.11,0.12-1.63,0.29
		c-0.24,0.08-0.46,0.29-0.56,0.52c-0.06,0.12-0.09,0.24-0.08,0.37c-0.02,0.13,0,0.26,0.05,0.39c0.1,0.24,0.27,0.46,0.52,0.56
		c0.25,0.1,0.51,0.12,0.76,0.03c0.1-0.03,0.2-0.06,0.31-0.08c0.27-0.05,0.53-0.09,0.8-0.09c0.14-0.01,0.27-0.05,0.38-0.12
		c0.12-0.05,0.23-0.13,0.31-0.24c0.09-0.1,0.15-0.21,0.18-0.34c0.05-0.12,0.07-0.25,0.05-0.38c-0.02-0.19-0.11-0.37-0.22-0.52
		c0.05,0.02,0.09,0.06,0.14,0.07c0.12,0.05,0.25,0.07,0.38,0.05l0.26-0.06c0.17-0.06,0.31-0.16,0.43-0.3
		c0.05-0.07,0.09-0.14,0.14-0.22c0.07-0.16,0.1-0.33,0.09-0.5C16,16.76,15.95,16.6,15.91,16.46z"/>
	<path class="st2" d="M10.77,18.22c-0.07-0.05-0.14-0.09-0.22-0.14c-0.16-0.07-0.33-0.1-0.5-0.09c-0.27,0.05-0.54,0.11-0.8,0.16
		c-0.4,0.08-0.77,0.17-1.11,0.42c-0.2,0.15-0.36,0.38-0.4,0.64c-0.03,0.13-0.02,0.26,0.02,0.39c0.02,0.14,0.07,0.26,0.15,0.37
		c0.16,0.2,0.38,0.37,0.64,0.4c0.24,0.03,0.5-0.01,0.71-0.15c0.12-0.05,0.24-0.09,0.36-0.12c0.2-0.04,0.4-0.08,0.6-0.12
		c0.14-0.01,0.27-0.05,0.38-0.12c0.12-0.05,0.23-0.13,0.31-0.24c0.09-0.1,0.15-0.21,0.18-0.34c0.05-0.12,0.07-0.25,0.05-0.38
		C11.09,18.65,10.98,18.38,10.77,18.22z"/>
	<path class="st2" d="M17.77,23.37c-0.15-0.19-0.38-0.39-0.64-0.4c-0.56-0.03-1.13-0.07-1.69-0.1c-0.13-0.03-0.26-0.02-0.39,0.02
		c-0.14,0.02-0.26,0.07-0.37,0.15c-0.17,0.12-0.31,0.33-0.37,0.55c0-0.04,0.02-0.07,0.01-0.1c-0.03-0.26-0.14-0.53-0.36-0.69
		c-0.07-0.05-0.14-0.09-0.22-0.14c-0.16-0.07-0.33-0.1-0.5-0.09c-0.06,0-0.12,0-0.18,0c-0.32-0.02-0.64-0.06-0.95-0.13
		c-0.13-0.03-0.26-0.02-0.39,0.02c-0.14,0.02-0.26,0.07-0.37,0.15c-0.11,0.07-0.2,0.17-0.26,0.28c-0.03,0.03-0.03,0.08-0.05,0.12
		c-0.01-0.09-0.01-0.18-0.04-0.27c-0.1-0.24-0.27-0.46-0.52-0.56c-0.68-0.29-1.41-0.42-2.14-0.38c-0.2,0.01-0.4,0.12-0.56,0.25
		c0.04-0.13,0.06-0.25,0.05-0.39C7.84,21.1,7.83,20.55,7.82,20c0-0.25-0.17-0.53-0.36-0.69c-0.19-0.15-0.48-0.26-0.72-0.23
		c-0.26,0.03-0.53,0.14-0.69,0.36c-0.05,0.07-0.09,0.14-0.14,0.22c-0.07,0.16-0.1,0.33-0.09,0.5c0.01,0.55,0.02,1.1,0.03,1.64
		c0,0.25,0.17,0.53,0.36,0.69c0.18,0.15,0.48,0.26,0.72,0.23c0.2-0.03,0.39-0.11,0.55-0.24c-0.04,0.13-0.06,0.26-0.04,0.38
		c0.03,0.26,0.14,0.53,0.36,0.69c0.21,0.16,0.45,0.24,0.72,0.23c0.08,0,0.16,0,0.24,0c0.24,0.02,0.47,0.06,0.7,0.13
		c0.07,0.02,0.13,0.05,0.2,0.07c0.24,0.1,0.52,0.12,0.76,0.03c0.22-0.08,0.45-0.27,0.55-0.49c0.02,0.17,0.06,0.34,0.16,0.47
		c0.16,0.21,0.37,0.35,0.64,0.4c0.54,0.12,1.1,0.16,1.65,0.16c0.14-0.01,0.27-0.05,0.38-0.12c0.12-0.05,0.23-0.13,0.31-0.24
		c0.09-0.1,0.15-0.21,0.18-0.34c0.01-0.01,0-0.03,0.01-0.04c-0.01,0.22,0.03,0.44,0.17,0.61c0.15,0.19,0.38,0.39,0.64,0.4
		c0.56,0.03,1.13,0.07,1.69,0.1c0.13,0.03,0.26,0.02,0.39-0.02c0.14-0.02,0.26-0.07,0.37-0.15c0.2-0.14,0.37-0.39,0.4-0.64
		C17.97,23.87,17.93,23.59,17.77,23.37z"/>
	<path class="st2" d="M20.93,23.31c-0.07-0.05-0.14-0.09-0.22-0.14c-0.16-0.07-0.33-0.1-0.5-0.09c-0.41-0.01-0.83-0.03-1.24-0.04
		c-0.14,0.01-0.27,0.05-0.38,0.12c-0.12,0.05-0.23,0.13-0.31,0.24c-0.09,0.1-0.15,0.21-0.18,0.34c-0.05,0.12-0.07,0.25-0.05,0.38
		c0.03,0.26,0.14,0.53,0.36,0.69c0.07,0.05,0.14,0.09,0.22,0.14c0.16,0.07,0.33,0.1,0.5,0.09c0.41,0.01,0.83,0.03,1.24,0.04
		c0.14-0.01,0.27-0.05,0.38-0.12c0.12-0.05,0.23-0.13,0.31-0.24c0.09-0.1,0.15-0.21,0.18-0.34c0.05-0.12,0.07-0.25,0.05-0.38
		C21.25,23.74,21.14,23.47,20.93,23.31z"/>
	<path class="st2" d="M23.97,23.79c-0.06-0.17-0.16-0.31-0.3-0.43c-0.07-0.05-0.14-0.09-0.22-0.14c-0.16-0.07-0.33-0.1-0.5-0.09
		c-0.11,0.02-0.21,0.03-0.32,0.05c-0.14,0.01-0.27,0.05-0.38,0.12c-0.12,0.05-0.23,0.13-0.31,0.24c-0.09,0.1-0.15,0.21-0.18,0.34
		c-0.05,0.12-0.07,0.25-0.05,0.38c0.02,0.09,0.04,0.17,0.06,0.26c0.06,0.17,0.16,0.31,0.3,0.43c0.07,0.05,0.14,0.09,0.22,0.14
		c0.16,0.07,0.33,0.1,0.5,0.09c0.11-0.02,0.21-0.03,0.32-0.05c0.14-0.01,0.27-0.05,0.38-0.12c0.12-0.05,0.23-0.13,0.31-0.24
		c0.09-0.1,0.15-0.21,0.18-0.34c0.05-0.12,0.07-0.25,0.05-0.38C24.01,23.97,23.99,23.88,23.97,23.79z"/>
	<path class="st2" d="M27.38,12.49c-0.91-1.37-2.65-2.12-4.27-1.85c-1.79,0.3-3.07,1.53-3.61,3.24c-0.05,0.14-0.04,0.29,0.01,0.43
		c-0.09,0.5-0.15,1.01-0.11,1.52c0.07,0.74,0.36,1.39,0.77,2c0.83,1.23,1.73,2.43,2.59,3.64c0.37,0.52,1.18,0.57,1.58,0.06
		C26.3,19.06,29.58,15.81,27.38,12.49z M25.3,17.05c-0.52,0.75-1.09,1.47-1.67,2.18c-0.52-0.73-1.04-1.46-1.56-2.19
		c-0.29-0.4-0.6-0.8-0.67-1.3c-0.08-0.61,0.09-1.23,0.23-1.82c0,0,0-0.01,0-0.01c0.85-1.71,3.58-1.77,4.32,0.12
		C26.36,15.09,25.9,16.18,25.3,17.05z"/>
	<path class="st2" d="M25.38,14.49c-0.03-0.13-0.05-0.24-0.11-0.36c-0.05-0.11-0.11-0.24-0.19-0.34c-0.07-0.09-0.16-0.19-0.25-0.26
		c-0.12-0.1-0.25-0.18-0.4-0.24c-0.23-0.09-0.45-0.14-0.71-0.11c-0.25,0.03-0.48,0.11-0.69,0.25c-0.01,0.01-0.01,0.02-0.02,0.02
		c-0.08,0.02-0.16,0.04-0.24,0.05c-0.17,0.06-0.31,0.16-0.43,0.3c-0.22,0.22-0.36,0.54-0.42,0.84c-0.06,0.3-0.03,0.65,0.09,0.93
		c0.12,0.28,0.3,0.56,0.55,0.74c0.12,0.09,0.25,0.18,0.39,0.23c0.11,0.04,0.23,0.08,0.34,0.11c0.13,0.03,0.27,0.03,0.39,0.03
		c0.09,0,0.18,0,0.27-0.01c0.16-0.03,0.33-0.05,0.48-0.11c0.36-0.15,0.69-0.42,0.84-0.79c0.12-0.31,0.16-0.61,0.15-0.94
		C25.43,14.72,25.41,14.6,25.38,14.49z"/>
</g>
</svg>
