<?xml version="1.0" encoding="utf-8"?>
<!-- Generator: Adobe Illustrator 26.2.1, SVG Export Plug-In . SVG Version: 6.00 Build 0)  -->
<svg version="1.1" id="Слой_1" xmlns="http://www.w3.org/2000/svg" x="0px" y="0px"
     viewBox="0 0 30 30" style="enable-background:new 0 0 30 30;" xml:space="preserve">
<style type="text/css">
	.st0{fill:#020202;}
</style>
    <g>
	<path class="st0" d="M25.96,27.93c-0.88-1.94-1.67-4-3.13-5.58c-0.69-1.46-1.95-2.74-3.13-3.7c-0.21-0.17-0.43-0.17-0.61-0.08
		l-4.45-0.18c-1.18-0.05-2.45-0.23-3.56,0.27c-0.21-0.03-0.42,0.05-0.58,0.2c-1.4,1.34-2.56,2.94-3.4,4.69
		c-0.01,0.02-0.01,0.04-0.01,0.05c-0.02,0.02-0.04,0.03-0.06,0.06c-0.92,1.47-1.84,2.94-2.77,4.41c-0.4,0.3-0.22,1.12,0.43,1.13
		c3,0.01,6-0.06,9-0.18c0.08,0.03,0.17,0.05,0.27,0.05c1.14-0.03,2.28-0.04,3.42-0.06c1.13,0,2.27,0,3.4,0c1.44,0,2.88,0,4.33,0
		c0.09,0.04,0.18,0.07,0.3,0.07c0.44,0,0.59-0.37,0.53-0.7C26.01,28.24,26.03,28.08,25.96,27.93z"/>
        <g>
		<path class="st0"
              d="M18.96,3.14c0.04,0.02,0.03,0-0.01,0C18.95,3.14,18.96,3.14,18.96,3.14C18.96,3.14,18.96,3.14,18.96,3.14z"/>
            <path class="st0" d="M21.03,8.06C20.77,7.52,20.41,7.07,20,6.65c-0.03-0.03-0.06-0.07-0.09-0.11c-0.23-0.29-0.48-0.57-0.7-0.87
			c-0.04-0.06-0.03-0.1-0.04-0.14c0.26-0.03,0.52-0.09,0.77-0.23c0.41-0.23,0.67-0.7,0.63-1.17c-0.05-0.54-0.46-0.96-1.01-0.99
			c-0.11-0.01-0.22,0-0.34,0.02c-0.04,0.01-0.09,0.01-0.13,0.01c0,0-0.02,0-0.04,0c-0.01,0,0,0-0.01,0
			c-0.02-0.01-0.06-0.01-0.09-0.02c0,0,0,0,0,0c0,0,0,0,0,0c-0.01,0-0.02-0.01-0.03-0.01c0.01,0,0.01,0,0.02,0
			c-0.02-0.01-0.03-0.01-0.05-0.02c-0.05-0.02-0.1-0.05-0.15-0.07c-0.16-0.16-0.36-0.18-0.57-0.2c-0.19-0.04-0.38-0.05-0.56-0.02
			c-0.02,0-0.04-0.01-0.06-0.01c0.01-0.02,0.03-0.05,0.03-0.07c0.1-0.25,0.18-0.52,0.2-0.8c0.02-0.08,0.02-0.16-0.01-0.24
			c0-0.01-0.01-0.02-0.01-0.02c-0.05-0.25-0.23-0.47-0.49-0.5c-0.08-0.03-0.18-0.05-0.3-0.05c-0.05,0-0.1,0-0.15,0
			c-0.39-0.03-0.77-0.04-1.15,0.03c-0.13,0.01-0.25,0.03-0.37,0.08c-0.01,0-0.02,0-0.03,0.01c-0.67,0.21-1.19,0.72-1.71,1.16
			c-0.54,0.46-1.05,0.87-1.42,1.49c-0.34,0.57-0.8,1.08-1.2,1.6c-0.1,0.12-0.12,0.25-0.12,0.37c-0.35,0.29-0.67,0.6-0.92,0.98
			c-0.43,0.67-0.56,1.42-0.66,2.2c-0.19,1.55-0.37,3.25,0.31,4.71c0.64,1.38,1.68,2.64,3.08,3.28c0.38,0.17,0.76,0.35,1.14,0.5
			c0.31,0.13,0.51,0.13,0.73,0.06c0.06,0.01,0.12,0.03,0.18,0.03c2.09-0.01,4.14-1.08,5.35-2.78c0.02-0.04,0.03-0.08,0.04-0.12
			c0.84-0.92,1.27-2.19,1.18-3.43c0.03-0.08,0.05-0.17,0.05-0.26c0-0.04-0.01-0.08-0.01-0.12c0-0.01,0-0.02,0-0.02
			c0.03-0.08,0.06-0.18,0.06-0.28C21.41,9.76,21.41,8.86,21.03,8.06z"/>
	</g>
</g>
</svg>
