<?xml version="1.0" encoding="utf-8"?>
<!-- Generator: Adobe Illustrator 26.2.1, SVG Export Plug-In . SVG Version: 6.00 Build 0)  -->
<svg version="1.1" id="Слой_2" xmlns="http://www.w3.org/2000/svg" x="0px" y="0px"
     viewBox="0 0 512 512" style="enable-background:new 0 0 512 512;" xml:space="preserve">
<style type="text/css">
	.st0{fill:#FEFEFE;}
	.st1{fill:#DDDDDD;}
	.st2{fill:#DCDCDC;}
	.st3{fill:#EBE7CB;}
	.st4{fill:#040404;}
	.st5{fill:#070707;}
	.st6{fill:#030303;}
	.st7{fill:#121212;}
	.st8{fill:#FDC073;}
	.st9{fill:#676767;}
	.st10{fill:#CECECE;}
	.st11{fill:#4B4B4B;}
	.st12{fill:#848484;}
	.st13{fill:#A4A4A4;}
	.st14{fill:#333333;}
	.st15{fill:#BE955E;}
</style>
    <g>
	<g>
		<path class="st0" d="M255.2,392.95c-45,0-90-0.01-134.99,0.05c-1.83,0-2.2-0.35-2.2-2.19c0.06-90.18,0.06-180.36-0.01-270.54
			c0-2.11,0.65-2.25,2.41-2.25c90.09,0.04,180.17,0.04,270.26-0.01c1.93,0,2.33,0.39,2.33,2.33c-0.06,90.09-0.06,180.18,0.01,270.28
			c0,2.15-0.64,2.39-2.53,2.39C345.38,392.94,300.29,392.95,255.2,392.95z M282.68,273.07c-0.23,0.48-0.46,0.96-0.69,1.45
			c-0.8-0.71-0.48-1.66-0.49-2.52c-0.03-4.1,0.06-8.2-0.05-12.3c-0.04-1.61,1.08-4.03-2.12-4.13c-0.16,0-0.45-0.41-0.43-0.6
			c0.28-2.09-1.11-3.91-1.1-5.84c0.01-2.39-0.93-3.23-3.12-3.14c1.26-2.68,0.86-5.89-1.23-7.5c-1.11-0.85-1.35-1.89-1.8-3.05
			c-1.51-3.92-2.59-8.39-8.19-8.37c-1.36,0.01-0.95-0.9-0.81-1.68c0.85-4.81,0.64-9.58-0.36-14.35c-0.33-1.55-0.72-3.15-0.46-4.78
			c0.45-2.76-0.12-5.28-1.58-7.67c-0.92-1.5-1.85-3.1-0.88-5c0.27-0.54,0.59-1.27-0.28-1.54c-0.76-0.24-1.1,0.45-1.35,1.02
			c-0.82,1.88-0.47,3.75,0.55,5.37c1.68,2.7,2.31,5.52,1.87,8.67c-0.13,0.94,0.11,1.95,0.3,2.91c0.95,4.75,1.45,9.5,0.66,14.35
			c-0.28,1.75-0.72,2.81-2.84,2.97c-3.27,0.24-5.52,2.18-6.92,5.17c-0.73,1.56-0.95,3.24-1.43,4.86c-0.15,0.51,0.15,1.09-0.8,1.39
			c-2.66,0.83-2.76,3.22-2.7,5.42c0.06,2.21,1.02,3.89,3.56,4.23c1.58,0.21,3.13,0.68,4.7,1.03c-1.25,3.54-2.49,7.09-3.74,10.63
			c-1.65-0.16-2.23-1.06-2.17-2.71c0.1-2.7,0.03-5.41,0.03-8.57c-3.78,3.11-7.15,5.82-10.44,8.62c-1.23,1.04-1.88,5.37-1.25,6.74
			c0.41,0.87,1.16,0.7,1.83,0.71c1.69,0.03,3.39,0.1,5.08-0.01c1.67-0.11,2.2,0.59,2.13,2.18c-0.09,2.14,0,4.28,0.02,6.42
			c-0.02,0.55-0.04,1.1-0.06,1.64c-1.14-2-0.51-4.18-0.49-6.25c0.03-2.27-0.81-3.04-3-2.89c-1.86,0.14-3.75-0.05-5.62,0.05
			c-1.6,0.08-2.26-0.47-2.19-2.13c0.1-2.58-0.08-5.18,0.06-7.76c0.1-1.9-0.51-2.98-2.38-3.57c-1.78-0.55-3.44-1.45-5.19-2.12
			c-1.53-0.58-2.24-1.51-2.12-3.23c0.14-2.13,0.05-4.28,0.02-6.42c-0.01-0.42-0.05-1-0.31-1.21c-0.56-0.44-0.94,0.18-1.33,0.5
			c-2.63,2.26-5.32,4.45-7.86,6.8c-2.9,2.68-3.2,6-0.72,9.48c-3.26,0-6.25,0.02-9.23-0.01c-1.39-0.01-2.55,0.18-2.48,1.96
			c0.12,3.38-0.3,6.78,0.25,10.15c-0.44,0.09-0.89,0.19-1.33,0.28c0-4.19,0.07-8.39-0.04-12.58c-0.04-1.7,1.09-4.19-2.2-4.35
			c-0.14-0.01-0.42-0.45-0.38-0.64c0.49-2.3-1.33-4.19-1.15-6.39c0.16-1.9-0.59-2.61-2.44-2.4c-0.88,0.1-1.79,0.07-2.67,0.01
			c-1.4-0.11-2.03,0.5-1.84,1.87c0.32,2.35-1.61,4.28-1.2,6.66c0.09,0.52-0.5,1.04-1.06,1.01c-2.23-0.11-2.05,1.37-2.04,2.85
			c0.03,4.64,0.02,9.28,0.02,13.92c-0.16,0.08-0.31,0.16-0.47,0.24c-0.03-7.67-0.2-15.34-0.01-23c0.07-2.92-0.55-4.73-3.61-5.39
			c-1.45-0.31-2.76-1.22-4.18-1.73c-1.47-0.54-2.04-1.44-1.95-3.03c0.13-2.13,0.04-4.28,0.02-6.42c0-0.42,0.1-0.95-0.43-1.15
			c-0.51-0.2-0.81,0.22-1.13,0.5c-2.88,2.5-5.64,5.17-8.68,7.47c-2.42,1.83-1.74,4.26-1.35,6.31c0.37,1.96,2.59,0.58,3.93,0.95
			c0.25,0.07,0.53,0.01,0.8,0.01c4.25,0,4.23,0,4.21,4.05c-0.03,7.22-0.02,14.45-0.03,21.67c-0.18,0.07-0.35,0.05-0.51-0.06
			c-0.01-7.21-0.07-14.43,0.01-21.64c0.02-1.87-0.56-2.49-2.43-2.44c-4.45,0.11-8.91,0.15-13.35-0.01
			c-2.28-0.08-3.08,0.49-3.05,2.93c0.11,7.65-0.05,15.31-0.1,22.96c-0.16-0.14-0.32-0.27-0.48-0.41c0.02-8.73,0.06-17.46,0.05-26.19
			c0-1.84,0.7-4.18-2.5-4.2c-0.21,0-0.64-0.53-0.59-0.73c0.52-2.23-1.32-4.01-1.15-6.11c0.24-2.8-1.53-2.66-3.43-2.66
			c-1.98,0-3.17,0.01-3.78,2.73c-0.53,2.4,0.85,6.17-3.17,7.28c-0.58,0.16-0.37,1.12-0.37,1.73c0.02,9,0.05,18,0.08,26.99
			c-1.23,0.88-1.83,2-1.81,3.6c0.07,5.06,0.05,10.13,0.02,15.19c-0.02,2.32,1.12,3.51,3.36,3.55c3.11,0.06,6.23,0.13,9.32-0.07
			c3.55-0.23,6.59-1.48,7.83-5.26c0.86,0,1.73,0,2.59,0c0.04,0.7,0.08,1.41,0.13,2.11c0.18,2.58,1.69,3.79,4.24,3.46
			c3.14-0.4,2.84-2.85,3.04-5.01c1.33-0.03,2.67-0.06,4-0.09c0.83,1.02,1.71,2,2.47,3.07c1.44,2.02,3.36,2.71,5.51,1.57
			c2.29-1.21,1.64-3.19,0.78-5.06c1.12-0.01,2.24-0.03,3.36-0.04c0.03,0.53,0.08,1.06,0.09,1.59c0.07,2.8,1.08,3.98,3.44,4.03
			c2.48,0.06,3.59-1.19,3.63-4.07c0.03-2.66,0.07-5.31,0.1-7.97c1.04-0.01,2.07-0.03,3.11-0.04c0.06,0.97,0.12,1.94,0.17,2.91
			c0.23,4.98,3.35,8.63,8.24,9.35c3.89,0.58,7.62,0.09,10.76-2.61c1.5-0.02,2.99-0.05,4.49-0.07c0.87,2.19,2.53,2.82,4.71,2.35
			c2.22-0.48,2.62-2.11,2.55-4.05c-0.03-0.98,0-1.96-0.01-2.94c-0.01-0.76,0.23-1.21,1.09-0.98c0.31,5.98,0.31,5.98,5.31,6.26
			c2.06,2.32,3.97,2.49,6.12,0.53c0.3-0.19,0.61-0.38,0.91-0.57c0.9,0,1.81-0.01,2.71-0.01c2.23,1.53,4.62,2.46,7.37,2.77
			c8.43,0.97,16.84,0.25,25.25-0.22c1.73-0.1,3.54-0.34,5.06-1.43c2.32-1.67,2.52-2.9,0.81-5.29c-0.15-0.75-0.31-1.49-0.46-2.24
			c0.51,0.01,1.02,0.01,1.53,0.02c1.03,3.6,2.22,7.07,6.56,7.94c7.31,2.28,13.11-0.58,15.04-7.41c1.62,0.17,3.23,0.33,4.85,0.5
			c0.34,1.08,0.71,2.15,1.03,3.24c0.99,3.35,2.75,4.59,6.23,4.37c2.97-0.18,4.14-1.4,5.33-5.53c0.95,0.03,1.91,0.06,2.86,0.08
			c1.47,4.56,3.02,5.73,6.85,5.45c3.52-0.26,4.35-2.89,5.16-5.59c2.05,0.05,4.1,0.1,6.15,0.16c0.04,0.35,0.09,0.7,0.11,1.05
			c0.14,2.88,1.26,4.11,3.7,4.05c2.42-0.06,3.44-1.3,3.47-4.26c0.02-1.68-0.02-3.35,0.04-5.03c0.02-0.57,0.27-1.14,0.83-0.24
			c-0.14,4.37-0.14,4.37,3.23,4.37c1,1.24,1.95,2.53,3.01,3.72c1.25,1.42,2.87,1.79,4.62,1.15c1.71-0.63,1.96-2.09,1.95-3.71
			c-0.04-5-0.04-9.99,0.01-14.99c0.01-1.1-0.19-2.11-0.66-3.09c0.03-6.96-0.28-13.95,0.19-20.88c0.33-4.96-0.72-8.26-6.06-9.13
			c-0.59-0.1-1.11-0.57-1.7-0.77c-1.61-0.55-2.08-1.66-2-3.31c0.12-2.47,0.03-4.94,0.03-8.23c-3.86,3.3-7.18,6.17-10.54,8.98
			c-2.03,1.71-1.47,4.04-1.08,5.98c0.37,1.85,2.42,0.69,3.71,0.9c0.96,0.16,1.97,0.11,2.94,0.01c1.72-0.17,2.41,0.46,2.33,2.25
			c-0.12,2.58-0.03,5.18-0.03,7.76c0,5.42,0,10.84,0,16.74c-0.82-1.29-0.55-2.2-0.55-3.05c-0.03-6.43-0.07-12.86,0.02-19.28
			c0.03-2.06-0.63-2.89-2.76-2.83c-4.37,0.12-8.75,0.13-13.12,0c-2.25-0.07-2.94,0.75-2.91,2.95c0.1,7.85,0.03,15.71,0.05,23.57
			c0,0.85-0.32,1.82,0.59,2.47c-0.26,1.31-0.52,2.63-0.79,3.94c-1.31-0.76-0.87-2.05-0.87-3.14c-0.03-10.27-0.01-20.53-0.02-30.8
			c0-1.51,0.57-3.41-2.04-3.43c-0.2,0-0.62-0.55-0.57-0.76c0.53-2.39-1.4-4.34-1.16-6.67c0.15-1.46-0.39-2.19-1.95-2.05
			c-0.89,0.08-1.79,0.09-2.67,0c-1.68-0.17-2.53,0.38-2.33,2.22c0.25,2.23-1.62,4.08-1.2,6.39c0.09,0.48-0.54,0.99-1.11,0.96
			c-2.04-0.11-1.98,1.22-1.97,2.64c0.03,4.54,0.01,9.08,0.01,13.78c-3.32-0.67-6.01-2.3-8.89-3.42c-0.95-0.37-0.76-1.32-0.76-2.1
			c-0.01-2.73,0-5.46,0-8.85c-3.66,3.04-6.87,5.65-10,8.35c-1.6,1.37-2.64,5.46-1.65,7.07c1.04,1.68,2.93,0.51,4.4,0.82
			c0.17,0.04,0.36,0,0.53,0.01c4.53,0.05,4.14-0.49,4,3.97c-0.1,3.15,0.76,6.37-0.52,9.45c-0.12-0.01-0.18-0.07-0.18-0.2
			c0.06-3.29,0.1-6.58,0.19-9.86c0.05-1.57-0.59-2.27-2.2-2.26c-4.8,0.04-9.61,0.04-14.41,0c-1.66-0.01-2.16,0.81-2.13,2.33
			C282.64,265.95,282.64,269.51,282.68,273.07z"/>
        <path class="st1" d="M341.47,286.85c-2.05-0.05-4.1-0.1-6.15-0.16c1.14-4.21,2.3-8.41,3.42-12.62c0.92-3.49-0.2-4.93-3.89-5.1
			c-2.35,0.27-3.39,1.7-3.5,3.96c-0.16,0.36-0.32,0.71-0.48,1.07c-0.91-0.65-0.59-1.62-0.59-2.47c-0.02-7.86,0.05-15.71-0.05-23.57
			c-0.03-2.2,0.66-3.02,2.91-2.95c4.37,0.14,8.75,0.12,13.12,0c2.14-0.06,2.79,0.77,2.76,2.83c-0.09,6.43-0.05,12.85-0.02,19.28
			c0,0.86-0.27,1.76,0.55,3.05c0-5.9,0-11.32,0-16.74c0-2.59-0.09-5.18,0.03-7.76c0.09-1.79-0.61-2.42-2.33-2.25
			c-0.97,0.09-1.98,0.14-2.94-0.01c-1.29-0.21-3.34,0.94-3.71-0.9c-0.39-1.94-0.95-4.27,1.08-5.98c3.36-2.82,6.67-5.68,10.54-8.98
			c0,3.29,0.09,5.77-0.03,8.23c-0.08,1.65,0.39,2.76,2,3.31c0.59,0.2,1.11,0.68,1.7,0.77c5.34,0.87,6.4,4.17,6.06,9.13
			c-0.46,6.93-0.16,13.92-0.19,20.88c-4.07-2.15-6.29-0.84-6.36,3.68c-0.03,1.85,0.34,3.76-0.31,5.83
			c-2.21-2.95-4.21-5.68-6.27-8.36c-1.13-1.46-2.39-2.58-4.52-1.84c-2.13,0.74-2.75,2.21-2.74,4.3
			C341.59,277.94,341.51,282.4,341.47,286.85z"/>
        <path class="st1" d="M301.3,272.38c1.27-3.09,0.41-6.3,0.52-9.45c0.14-4.45,0.53-3.92-4-3.97c-0.18,0-0.36,0.03-0.53-0.01
			c-1.47-0.32-3.36,0.86-4.4-0.82c-0.99-1.6,0.05-5.69,1.65-7.07c3.14-2.69,6.35-5.3,10-8.35c0,3.39-0.01,6.12,0,8.85
			c0,0.78-0.19,1.73,0.76,2.1c2.88,1.12,5.57,2.76,8.89,3.42c0-4.7,0.02-9.24-0.01-13.78c-0.01-1.43-0.07-2.75,1.97-2.64
			c0.57,0.03,1.2-0.48,1.11-0.96c-0.42-2.31,1.44-4.16,1.2-6.39c-0.2-1.83,0.65-2.38,2.33-2.22c0.88,0.09,1.79,0.08,2.67,0
			c1.56-0.14,2.1,0.59,1.95,2.05c-0.24,2.32,1.69,4.27,1.16,6.67c-0.05,0.21,0.37,0.76,0.57,0.76c2.61,0.02,2.04,1.91,2.04,3.43
			c0.01,10.27-0.01,20.53,0.02,30.8c0,1.1-0.43,2.38,0.87,3.14c-0.14,0.47-0.28,0.94-0.42,1.41c-0.07,0.04-0.19,0.09-0.19,0.12
			c0.02,0.13,0.07,0.25,0.11,0.37c-0.2,0.83-0.41,1.66-0.81,3.29c-0.86-3.96-1.54-7.14-2.25-10.31c-0.46-2.05-1.41-3.64-3.79-3.76
			c-2.63-1.22-4.13,0.38-5.28,2.32c-0.94,1.59-1.29,3.43-1.09,5.31c-0.42,1.86-0.83,3.73-1.35,6.07c-1.58-4.3-1.85-8.38-3.48-12.07
			c-1.17-2.18-2.96-2.75-5.02-1.51c-2.08,1.25-2.69,3.12-1.27,5.33c0.87,3.38,1.74,6.76,2.6,10.14c-1.62-0.17-3.23-0.33-4.85-0.5
			C302.63,280.22,303.78,276.04,301.3,272.38z"/>
        <path class="st2" d="M218.44,289.44c-1.5,0.02-2.99,0.05-4.49,0.07c2.21-3.08,0.95-6.52,0.98-9.81c0-0.39-0.57-0.91-0.99-1.17
			c-1.78-1.1-7.72-0.19-9.19,1.35c-1.92-1.16-0.49-3.09-1.03-4.56c1.77-1.31,3.26-0.5,4.81,0.54c2.27,1.53,4.04,1.23,5.64-0.8
			c1.56-1.06,0.41-2.08-0.19-2.88c-2.63-3.51-6.37-4.12-10.44-3.75c-0.55-3.37-0.13-6.77-0.25-10.15c-0.07-1.78,1.09-1.98,2.48-1.96
			c2.98,0.03,5.97,0.01,9.23,0.01c-2.48-3.47-2.18-6.79,0.72-9.48c2.54-2.35,5.23-4.55,7.86-6.8c0.38-0.33,0.77-0.94,1.33-0.5
			c0.26,0.21,0.31,0.79,0.31,1.21c0.03,2.14,0.12,4.29-0.02,6.42c-0.11,1.72,0.6,2.65,2.12,3.23c1.74,0.67,3.41,1.57,5.19,2.12
			c1.87,0.58,2.48,1.67,2.38,3.57c-0.14,2.58,0.04,5.18-0.06,7.76c-0.07,1.67,0.59,2.22,2.19,2.13c1.87-0.1,3.76,0.09,5.62-0.05
			c2.19-0.16,3.02,0.62,3,2.89c-0.02,2.07-0.66,4.25,0.49,6.25c-1.62,3.63-2.89,7.37-3.73,11.26c-0.95,1.12-1.5,2.3-0.54,3.71
			c-0.9,0-1.81,0.01-2.71,0.01c0.02-5.78,0.06-11.56,0.07-17.34c0.01-2.31-1.49-4.05-3.69-4.02c-2.06,0.03-3.62,0.87-3.55,3.31
			c-0.19,5.76-0.19,5.76-6.07,5.58c-0.07-1.84-0.06-3.7-0.22-5.53c-0.23-2.76-2.06-3.84-4.73-2.91c-2.22,0.34-2.42,2-2.43,3.77
			C218.49,278.43,218.46,283.93,218.44,289.44z"/>
        <path class="st3" d="M242.38,286.34c0.84-3.89,2.12-7.63,3.73-11.26c0.02-0.55,0.04-1.1,0.06-1.64c2.23-4.23,3.25-8.89,4.77-13.38
			c1.25-3.54,2.49-7.09,3.74-10.63c0,0,0.25-0.06,0.25-0.06s0.25,0.08,0.25,0.08c0.03,3.2,1.11,4.88,3.6,5.24
			c2.66,0.38,5.14,0.11,6.55-2.67c1.11,1.03,1.01,2.79,2.23,3.76c2.21,6.27,5.16,12.22,7.84,18.29c1.43,3.22,2.32,6.7,4.47,9.58
			c0.15,0.75,0.31,1.49,0.46,2.24c-5.21-2-10.64-0.86-15.97-1.1c-0.04-1.94,0.09-3.89-0.14-5.8c-0.33-2.67,0.47-3.64,3.32-3.45
			c3.16,0.22,4.29-1.7,3.27-4.79c-0.48-1.35-1.64-1.42-2.81-1.57c-5.29-0.69-10.56,1.07-15.86,0.18c-0.44-0.07-1.03,0.27-1.2,0.89
			c-1.4,2.93-0.61,4.97,2.12,5.33c0.87,0.12,1.77,0.11,2.64,0.03c1.32-0.13,1.65,0.46,1.6,1.68c-0.11,2.64-0.1,5.28-0.14,7.92
			C252.23,285.51,247.2,284.53,242.38,286.34z"/>
        <path class="st1" d="M174.32,269.15c0.01-7.22,0.01-14.45,0.03-21.67c0.01-4.05,0.04-4.05-4.21-4.05c-0.27,0-0.55,0.06-0.8-0.01
			c-1.34-0.37-3.56,1.01-3.93-0.95c-0.39-2.05-1.06-4.48,1.35-6.31c3.04-2.3,5.8-4.97,8.68-7.47c0.32-0.28,0.63-0.7,1.13-0.5
			c0.53,0.21,0.43,0.73,0.43,1.15c0.02,2.14,0.11,4.29-0.02,6.42c-0.1,1.59,0.47,2.5,1.95,3.03c1.42,0.51,2.73,1.42,4.18,1.73
			c3.07,0.67,3.68,2.47,3.61,5.39c-0.19,7.66-0.02,15.33,0.01,23l-0.09,0.24c-1.83,0.5-2.14,1.89-2.15,3.52
			c-0.01,4.55-0.05,9.1-0.09,13.65c-1.12,0.01-2.24,0.03-3.36,0.04c-0.68-0.81-1.3-1.68-2.06-2.41c-1.36-1.3-1.81-2.28,0.17-3.57
			c1.36-0.89,1.92-2.51,1.58-4.25C180.71,271.93,178.84,269.89,174.32,269.15z"/>
        <path class="st1" d="M160.89,286.32c-0.86,0-1.73,0-2.59,0c0.31-3.53-1.57-5.56-4.93-6.58c3.7-2.42,4.27-3.94,2.71-6.85
			c-0.37-0.68-0.79-1.34-1.19-2c0.05-7.66,0.21-15.31,0.1-22.96c-0.04-2.44,0.76-3.02,3.05-2.93c4.45,0.16,8.9,0.12,13.35,0.01
			c1.87-0.05,2.46,0.57,2.43,2.44c-0.08,7.21-0.02,14.42-0.01,21.64c-0.2,0.05-0.41,0.1-0.61,0.16c-2.57-0.03-5.15-0.08-7.72-0.07
			c-3.51,0.01-4.43,0.94-4.47,4.38C160.97,277.8,160.93,282.06,160.89,286.32z"/>
        <path class="st4" d="M307.85,284.68c-0.87-3.38-1.74-6.76-2.6-10.14c1.38-2.46,2.75-4.94,6.3-3.82c1.63,3.69,1.9,7.76,3.48,12.07
			c0.52-2.34,0.94-4.21,1.35-6.07c1.23-0.01,1.57-0.78,1.79-1.86c0.45-2.24,1.21-4.31,3.94-4.72c0.5-0.08,0.59-0.6,0.64-1.05
			c2.38,0.13,3.33,1.71,3.79,3.76c0.7,3.17,1.38,6.34,2.25,10.31c0.4-1.63,0.6-2.46,0.81-3.29c0.11-0.15,0.13-0.32,0.07-0.49
			c0.14-0.47,0.28-0.94,0.42-1.41c0.26-1.31,0.52-2.63,0.79-3.94c0.16-0.36,0.32-0.71,0.48-1.07c1.96-0.62,3.73-1.4,3.5-3.96
			c3.69,0.17,4.81,1.61,3.89,5.1c-1.12,4.21-2.28,8.41-3.42,12.62c-0.81,2.7-1.64,5.33-5.16,5.59c-3.83,0.28-5.38-0.89-6.85-5.45
			c-0.12-2.16-0.71-4.2-1.41-6.73c-0.29,0.87-0.48,1.27-0.56,1.7c-0.32,1.65-0.6,3.3-0.9,4.95c-1.19,4.13-2.37,5.35-5.33,5.53
			c-3.48,0.21-5.24-1.03-6.23-4.37C308.56,286.83,308.19,285.76,307.85,284.68z"/>
        <path class="st1" d="M139.57,269.32c-0.03-9-0.06-18-0.08-26.99c0-0.61-0.22-1.57,0.37-1.73c4.02-1.11,2.63-4.88,3.17-7.28
			c0.6-2.72,1.8-2.73,3.78-2.73c1.89,0,3.66-0.14,3.43,2.66c-0.18,2.1,1.66,3.89,1.15,6.11c-0.05,0.2,0.38,0.73,0.59,0.73
			c3.2,0.01,2.5,2.36,2.5,4.2c0.01,8.73-0.03,17.46-0.05,26.19C149.58,268.59,144.56,269.12,139.57,269.32z"/>
        <path class="st5" d="M341.47,286.85c0.04-4.46,0.12-8.91,0.09-13.37c-0.02-2.09,0.61-3.56,2.74-4.3c2.13-0.74,3.4,0.38,4.52,1.84
			c2.06,2.68,4.07,5.41,6.27,8.36c0.64-2.08,0.28-3.98,0.31-5.83c0.07-4.52,2.29-5.83,6.36-3.68c0.47,0.97,0.67,1.98,0.66,3.09
			c-0.04,4.99-0.04,9.99-0.01,14.99c0.01,1.62-0.23,3.08-1.95,3.71c-1.75,0.64-3.37,0.27-4.62-1.15c-1.05-1.19-2.01-2.48-3.01-3.72
			c-0.88-1.6-1.93-3.07-3.23-4.37c-0.56-0.91-0.81-0.33-0.83,0.24c-0.06,1.67-0.02,3.35-0.04,5.03c-0.03,2.95-1.05,4.2-3.47,4.26
			c-2.44,0.06-3.56-1.17-3.7-4.05C341.56,287.55,341.51,287.2,341.47,286.85z"/>
        <path class="st4" d="M139.57,269.32c4.99-0.19,10.01-0.73,14.84,1.16c0.16,0.14,0.32,0.27,0.48,0.41c0.4,0.67,0.83,1.32,1.19,2
			c1.55,2.9,0.99,4.43-2.71,6.85c3.36,1.02,5.23,3.05,4.93,6.58c-1.25,3.78-4.29,5.03-7.83,5.26c-3.1,0.2-6.22,0.13-9.32,0.07
			c-2.24-0.04-3.38-1.23-3.36-3.55c0.04-5.06,0.06-10.13-0.02-15.19C137.74,271.32,138.34,270.2,139.57,269.32z M147.32,286.24
			c1.47-0.05,3.48,0.28,3.41-1.87c-0.07-2.13-2.11-1.68-3.56-1.72c-1.2-0.04-2.38-0.36-2.41,1.73
			C144.73,286.61,146,286.27,147.32,286.24z M146.94,274.59c-0.95,0.08-2.14-0.43-2.14,1.38c0,1.45,0.51,1.82,1.84,1.71
			c1.22-0.1,2.77,0.13,2.84-1.54C149.53,274.65,148.12,274.58,146.94,274.59z"/>
        <path class="st2" d="M194.78,279.86c-1.04,0.01-2.07,0.03-3.11,0.04c-0.05-2.15-0.1-4.3-0.15-6.45c0.46-3.26-0.57-4.4-4.31-4.77
			c0-4.64,0.01-9.28-0.02-13.92c-0.01-1.48-0.19-2.96,2.04-2.85c0.56,0.03,1.15-0.49,1.06-1.01c-0.4-2.38,1.52-4.31,1.2-6.66
			c-0.19-1.37,0.44-1.98,1.84-1.87c0.89,0.07,1.79,0.09,2.67-0.01c1.85-0.21,2.6,0.49,2.44,2.4c-0.18,2.2,1.64,4.09,1.15,6.39
			c-0.04,0.19,0.23,0.63,0.38,0.64c3.29,0.16,2.15,2.65,2.2,4.35c0.11,4.19,0.04,8.39,0.04,12.58c-0.2,0.19-0.41,0.37-0.61,0.56
			c-0.33,0.06-0.69,0.07-0.99,0.2C196.08,271.49,194.86,275.36,194.78,279.86z"/>
        <path class="st4" d="M160.89,286.32c0.04-4.26,0.08-8.52,0.12-12.78c0.03-3.44,0.96-4.37,4.47-4.38c2.57,0,5.15,0.05,7.72,0.07
			c0.09,0.99,0.15,1.97,1.55,1.96c2.33-0.02,3.46,1.36,4,3.45c0.25,1,0.69,1.85,1.99,1.49c0.34,1.74-0.21,3.36-1.58,4.25
			c-1.98,1.29-1.53,2.27-0.17,3.57c0.76,0.73,1.38,1.6,2.06,2.41c0.86,1.87,1.51,3.85-0.78,5.06c-2.16,1.14-4.08,0.45-5.51-1.57
			c-0.76-1.07-1.64-2.05-2.47-3.07c-0.59-0.86-1.19-1.72-1.78-2.59c-0.41-0.61-1.02-0.63-1.65-0.56c-0.94,0.1-0.71,0.85-0.72,1.42
			c0,0.6,0.09,1.21,0.14,1.81c-0.2,2.16,0.11,4.61-3.04,5.01c-2.55,0.33-4.06-0.88-4.24-3.46
			C160.97,287.73,160.93,287.02,160.89,286.32z M170.22,274.6c-1-0.07-2.18-0.25-2.14,1.76c0.03,1.62,0.66,1.97,2.08,1.86
			c1.4-0.11,3.21,0.23,3.28-1.76C173.5,274.68,171.9,274.57,170.22,274.6z"/>
        <path class="st6" d="M194.78,279.86c0.08-4.5,1.3-8.37,5.82-10.39c0.3-0.13,0.66-0.14,0.99-0.2c-0.14,1.51,0.64,1.5,1.81,1.24
			c4.09-0.91,7.52-0.04,9.73,3.85c0.23,0.4,0.56,0.67,1.04,0.7c-1.6,2.04-3.37,2.33-5.64,0.8c-1.55-1.04-3.04-1.85-4.81-0.54
			c-2.75,1.9-1.38,4.75-1.48,7.16c-0.14,3.05,2.51,4.55,5.36,3.38c0.62-0.26,1.18-0.49,1.13-1.26c-0.05-0.73-0.63-0.72-1.17-0.77
			c-2.42-0.25-3.11-1.75-2.8-3.95c1.48-1.54,7.41-2.45,9.19-1.35c0.43,0.26,1,0.78,0.99,1.17c-0.03,3.3,1.23,6.74-0.98,9.81
			c-3.14,2.7-6.87,3.19-10.76,2.61c-4.89-0.73-8.01-4.38-8.24-9.35C194.9,281.8,194.83,280.83,194.78,279.86z"/>
        <path class="st1" d="M279.87,283.63c-2.16-2.88-3.05-6.36-4.47-9.58c-2.69-6.06-5.63-12.02-7.84-18.29
			c0.81-0.11,2.22,0.25,2.03-0.99c-0.39-2.56,1.65-4.61,1.2-7.11c1.23-0.72,2.48-1.41,3.9-1.69c2.19-0.09,3.13,0.75,3.12,3.14
			c-0.01,1.94,1.38,3.75,1.1,5.84c-0.02,0.18,0.27,0.59,0.43,0.6c3.2,0.1,2.07,2.52,2.12,4.13c0.11,4.1,0.02,8.2,0.05,12.3
			c0.01,0.85-0.31,1.8,0.49,2.52c-0.81,3.01-0.51,6.09-0.59,9.14C280.89,283.65,280.38,283.64,279.87,283.63z"/>
        <path class="st5" d="M225.89,277.59c5.88,0.18,5.88,0.18,6.07-5.58c0.68-0.14,1.31-0.15,1.9-0.75c1.46-1.5,2.52-0.58,3.25,0.85
			c0.54,1.06,0.39,2.26,0.38,3.41c-0.02,4.18-0.07,8.36-0.04,12.54c0.01,0.88-0.51,2.02,0.76,2.56c-2.15,1.96-4.06,1.79-6.12-0.53
			c-0.05-0.53-0.13-1.05-0.14-1.58c-0.18-5.02-0.17-5.02-5.16-4.68c-0.86-0.23-1.1,0.22-1.09,0.98c0.01,0.98-0.03,1.96,0.01,2.94
			c0.07,1.94-0.33,3.57-2.55,4.05c-2.19,0.47-3.84-0.16-4.71-2.35c0.02-5.51,0.05-11.01,0.07-16.52c0.01-1.77,0.21-3.43,2.43-3.77
			c2.4,1.76,3.22,4.09,2.81,7.03C223.53,277.74,224.69,277.85,225.89,277.59z"/>
        <path class="st6" d="M301.3,272.38c2.48,3.66,1.34,7.84,1.71,11.8c-1.93,6.84-7.72,9.69-15.04,7.41c-0.02-0.71-0.07-1.33-0.69-1.9
			c-4.25-3.9-5.35-9.17-3.55-14.52c1.06-3.15,3.05-4.64,6.17-5c2.23-0.25,4.4-0.24,6.51,0.72c0.89,0.4,1.93,1.25,2.77-0.17
			c0.92,0.12,1.22,1.06,1.94,1.46C301.11,272.31,301.17,272.38,301.3,272.38z M295.55,283.67c0.62-2.17,0.46-4.4,0.13-6.55
			c-0.27-1.78-1.35-3.18-3.42-3.09c-2.16,0.09-3.18,1.55-3.3,3.51c-0.12,2.03,0.06,4.08,0.11,6.12c0.14,2,1.32,3.1,3.22,3.15
			C294.28,286.85,295.38,285.66,295.55,283.67z"/>
        <path class="st7" d="M274.69,245.99c-1.42,0.28-2.67,0.97-3.9,1.69c-1.89,0.48-3.77,0.96-5.66,1.45c-0.38,0.1-0.76,0.19-1.14,0.29
			c-2.5,0.05-4.99,0.09-7.49,0.14c-0.44-0.04-0.88-0.07-1.32-0.11l-0.25-0.08c0,0-0.25,0.06-0.25,0.06
			c-1.57-0.35-3.12-0.82-4.7-1.03c-2.54-0.34-3.5-2.01-3.56-4.23c-0.06-2.2,0.05-4.6,2.7-5.42c0.95-0.3,0.65-0.87,0.8-1.39
			c0.48-1.62,0.7-3.3,1.43-4.86c1.4-2.99,3.66-4.93,6.92-5.17c2.12-0.16,2.56-1.22,2.84-2.97c0.79-4.84,0.28-9.6-0.66-14.35
			c-0.19-0.96-0.43-1.97-0.3-2.91c0.44-3.14-0.18-5.97-1.87-8.67c-1.02-1.63-1.37-3.49-0.55-5.37c0.25-0.57,0.59-1.26,1.35-1.02
			c0.87,0.27,0.55,1,0.28,1.54c-0.97,1.9-0.05,3.5,0.88,5c1.47,2.39,2.03,4.9,1.58,7.67c-0.26,1.62,0.13,3.22,0.46,4.78
			c1,4.77,1.21,9.54,0.36,14.35c-0.14,0.77-0.54,1.68,0.81,1.68c5.6-0.02,6.68,4.45,8.19,8.37c0.45,1.16,0.69,2.2,1.8,3.05
			C275.55,240.09,275.95,243.31,274.69,245.99z M255.79,241.89c-1.94-0.4-3.88-0.86-5.83-1.19c-0.71-0.12-2.04-0.52-1.16,1.13
			c-0.05,0.19-0.09,0.38-0.14,0.57c-1.02,2.3-0.24,3.64,2.16,4.3c3.88,1.07,7.84,1.31,11.78,0.85c1.09-0.13,2.79,0.36,3.41-1.34
			c2.27-0.1,4.36-0.88,6.41-1.79c2.38-0.36,1.07-2.04,0.96-3.1c-0.09-0.9-0.6-1.9-2.01-1.41
			C266.31,241.69,261.06,241.9,255.79,241.89z M262.43,229.48c-0.57-0.47-1.22-0.01-1.82-0.17c-3.88-0.86-6.54,0.95-8.13,5.53
			c-0.11,1.56-2.14,3.67,0.6,4.48c2.58,0.77,5.38,0.8,8.06-0.07c2.59-0.22,5.21,0.29,7.79-0.52c1.07-0.33,1.49-0.74,1.24-1.8
			c-0.23-2.7-1.57-4.89-3.29-6.86C265.6,228.61,264.08,228.38,262.43,229.48z"/>
        <path class="st8" d="M264.36,284.78c5.33,0.24,10.76-0.91,15.97,1.1c1.71,2.39,1.51,3.63-0.81,5.29
			c-1.52,1.09-3.34,1.34-5.06,1.43c-8.41,0.47-16.81,1.19-25.25,0.22c-2.75-0.32-5.14-1.24-7.37-2.77c-0.96-1.4-0.41-2.58,0.54-3.71
			c4.81-1.81,9.85-0.83,14.78-1.15c0,1.25-0.01,2.5-0.01,3.75c-1.95,0.01-3.9,0.02-5.85,0.04c-0.85,0.01-1.67,0.19-1.81,1.18
			c-0.14,1.06,0.63,1.86,1.49,1.88c2.49,0.05,5.06,0.8,7.48-0.44c1.42,0.46,2.85,0.43,4.29,0.15c2.02,0.97,4.16,0.36,6.24,0.37
			c0.79,0.01,1.56-0.64,1.52-1.56c-0.04-0.88-0.74-1.46-1.59-1.51c-1.5-0.1-3.01-0.05-4.52-0.06
			C264.39,287.58,264.38,286.18,264.36,284.78z"/>
        <path class="st1" d="M301.11,272.19c-0.71-0.4-1.02-1.33-1.94-1.46c-0.19-0.55-0.66-0.8-1.13-1.05
			c-5.4-2.95-10.43-1.84-15.37,3.39c-0.04-3.56-0.04-7.12-0.12-10.67c-0.03-1.52,0.47-2.34,2.13-2.33c4.8,0.04,9.61,0.04,14.41,0
			c1.61-0.01,2.25,0.69,2.2,2.26C301.21,265.61,301.17,268.9,301.11,272.19z"/>
        <path class="st1" d="M250.95,260.06c-1.52,4.49-2.54,9.15-4.77,13.38c-0.01-2.14-0.1-4.28-0.02-6.42c0.07-1.6-0.46-2.29-2.13-2.18
			c-1.69,0.11-3.39,0.04-5.08,0.01c-0.68-0.01-1.43,0.16-1.83-0.71c-0.64-1.37,0.02-5.69,1.25-6.74c3.29-2.8,6.66-5.51,10.44-8.62
			c0,3.16,0.08,5.87-0.03,8.57C248.71,258.99,249.3,259.89,250.95,260.06z"/>
        <path class="st6" d="M191.52,273.45c0.05,2.15,0.1,4.3,0.15,6.45c-0.03,2.66-0.07,5.31-0.1,7.97c-0.04,2.88-1.14,4.13-3.63,4.07
			c-2.36-0.05-3.36-1.23-3.44-4.03c-0.01-0.53-0.06-1.06-0.09-1.59c0.03-4.55,0.07-9.1,0.09-13.65c0-1.63,0.32-3.03,2.15-3.52
			C188.48,270.35,189.49,272.48,191.52,273.45z"/>
        <path class="st9" d="M282.68,273.07c4.94-5.23,9.97-6.34,15.37-3.39c0.47,0.26,0.93,0.51,1.13,1.05
			c-0.83,1.42-1.88,0.57-2.77,0.17c-2.11-0.96-4.28-0.98-6.51-0.72c-3.12,0.36-5.11,1.85-6.17,5c-1.8,5.35-0.7,10.62,3.55,14.52
			c0.63,0.58,0.67,1.19,0.69,1.9c-4.34-0.87-5.53-4.34-6.56-7.94c0.09-3.05-0.22-6.14,0.59-9.14
			C282.22,274.03,282.45,273.55,282.68,273.07z"/>
        <path class="st9" d="M238.22,290.62c-1.27-0.54-0.75-1.68-0.76-2.56c-0.04-4.18,0.02-8.36,0.04-12.54c0-1.15,0.15-2.36-0.38-3.41
			c-0.73-1.44-1.79-2.35-3.25-0.85c-0.59,0.6-1.23,0.61-1.9,0.75c-0.06-2.44,1.49-3.28,3.55-3.31c2.19-0.04,3.69,1.7,3.69,4.02
			c-0.01,5.78-0.05,11.56-0.07,17.34C238.83,290.24,238.52,290.43,238.22,290.62z"/>
        <path class="st10" d="M226.79,283.82c4.99-0.34,4.99-0.34,5.16,4.68c0.02,0.53,0.1,1.05,0.14,1.58
			C227.1,289.8,227.1,289.8,226.79,283.82z"/>
        <path class="st9" d="M214.16,275.06c-0.49-0.02-0.81-0.29-1.04-0.7c-2.21-3.89-5.64-4.76-9.73-3.85
			c-1.17,0.26-1.95,0.27-1.81-1.24c0.2-0.19,0.41-0.37,0.61-0.56c0.44-0.09,0.89-0.19,1.33-0.28c4.06-0.37,7.81,0.24,10.44,3.75
			C214.56,272.98,215.72,274,214.16,275.06z"/>
        <path class="st9" d="M180.74,276.15c-1.3,0.36-1.73-0.49-1.99-1.49c-0.53-2.09-1.67-3.48-4-3.45c-1.4,0.01-1.46-0.97-1.55-1.96
			c0.2-0.05,0.41-0.1,0.61-0.16c0.16,0.12,0.33,0.14,0.51,0.06C178.84,269.89,180.71,271.93,180.74,276.15z"/>
        <path class="st9" d="M191.52,273.45c-2.03-0.97-3.03-3.1-4.87-4.29l0.09-0.24c0.16-0.08,0.31-0.16,0.47-0.24
			C190.94,269.05,191.98,270.19,191.52,273.45z"/>
        <path class="st10" d="M320.44,286.76c0.3-1.65,0.58-3.3,0.9-4.95c0.08-0.42,0.27-0.82,0.56-1.7c0.7,2.53,1.28,4.57,1.41,6.73
			C322.35,286.81,321.4,286.79,320.44,286.76z"/>
        <path class="st10" d="M168.29,286.87c-0.05-0.6-0.15-1.21-0.14-1.81c0-0.57-0.22-1.32,0.72-1.42c0.62-0.07,1.24-0.05,1.65,0.56
			c0.59,0.87,1.18,1.72,1.78,2.59C170.96,286.82,169.62,286.84,168.29,286.87z"/>
        <path class="st10" d="M349.62,282.43c1.29,1.29,2.35,2.76,3.23,4.37C349.48,286.8,349.48,286.8,349.62,282.43z"/>
        <path class="st9" d="M334.85,268.98c0.23,2.55-1.55,3.34-3.5,3.96C331.46,270.68,332.5,269.25,334.85,268.98z"/>
        <path class="st9" d="M311.54,270.72c-3.55-1.12-4.92,1.37-6.3,3.82c-1.41-2.22-0.81-4.08,1.27-5.33
			C308.58,267.96,310.37,268.54,311.54,270.72z"/>
        <path class="st9" d="M322.74,269.08c-0.06,0.45-0.14,0.98-0.64,1.05c-2.72,0.42-3.48,2.48-3.94,4.72
			c-0.22,1.08-0.55,1.85-1.79,1.86c-0.2-1.89,0.15-3.72,1.09-5.31C318.61,269.46,320.11,267.85,322.74,269.08z"/>
        <path class="st0" d="M329.66,279.36c0.06,0.18,0.04,0.34-0.07,0.49c-0.04-0.12-0.1-0.25-0.11-0.37
			C329.47,279.45,329.59,279.4,329.66,279.36z"/>
        <path class="st1" d="M204.75,279.88c-0.31,2.2,0.38,3.7,2.8,3.95c0.54,0.06,1.12,0.05,1.17,0.77c0.05,0.78-0.51,1.01-1.13,1.26
			c-2.85,1.18-5.5-0.33-5.36-3.38c0.11-2.42-1.27-5.26,1.48-7.16C204.26,276.8,202.83,278.72,204.75,279.88z"/>
        <path class="st9" d="M225.89,277.59c-1.2,0.26-2.35,0.15-2.14-1.4c0.41-2.94-0.41-5.27-2.81-7.03c2.67-0.93,4.5,0.15,4.73,2.91
			C225.83,273.89,225.82,275.74,225.89,277.59z"/>
        <path class="st6" d="M262.76,291.75c-1.44,0.28-2.88,0.3-4.29-0.15c-0.56-0.83-1.18-1.62-1.31-2.66c0-1.25,0.01-2.5,0.01-3.75
			c0.04-2.64,0.04-5.29,0.14-7.92c0.05-1.22-0.28-1.81-1.6-1.68c-0.87,0.09-1.77,0.09-2.64-0.03c-2.73-0.37-3.53-2.41-2.12-5.33
			c0.95,0.73,2,0.98,3.21,0.95c2.48-0.05,4.97,0.14,7.44,0.04c3.07-0.13,6.19,0.58,9.21-0.48c1.02,3.09-0.11,5-3.27,4.79
			c-2.85-0.19-3.65,0.78-3.32,3.45c0.23,1.91,0.11,3.87,0.14,5.8c0.01,1.4,0.02,2.8,0.03,4.2
			C263.85,289.9,263.3,290.82,262.76,291.75z"/>
        <path class="st9" d="M270.81,270.73c-3.02,1.05-6.14,0.35-9.21,0.48c-2.48,0.11-4.96-0.09-7.44-0.04
			c-1.21,0.02-2.26-0.22-3.21-0.95c0.16-0.62,0.76-0.96,1.2-0.89c5.3,0.9,10.57-0.87,15.86-0.18
			C269.17,269.31,270.33,269.39,270.81,270.73z"/>
        <path class="st0" d="M265.13,249.12c1.89-0.48,3.77-0.96,5.66-1.45c0.45,2.5-1.59,4.54-1.2,7.11c0.19,1.24-1.22,0.88-2.03,0.99
			c-1.22-0.97-1.11-2.72-2.23-3.76C265.27,251.05,265.2,250.08,265.13,249.12z"/>
        <path class="st8" d="M265.13,249.12c0.07,0.96,0.13,1.93,0.2,2.89c-1.41,2.78-3.89,3.05-6.55,2.67c-2.49-0.36-3.57-2.03-3.6-5.24
			c0.44,0.04,0.88,0.07,1.32,0.11c0.06,3,1.02,3.71,4.69,3.45c2.26-0.16,3.46-1.15,2.79-3.59
			C264.37,249.31,264.75,249.22,265.13,249.12z"/>
        <path class="st10" d="M147.32,286.24c-1.32,0.03-2.59,0.37-2.56-1.87c0.03-2.09,1.21-1.77,2.41-1.73c1.45,0.04,3.49-0.4,3.56,1.72
			C150.81,286.52,148.79,286.19,147.32,286.24z"/>
        <path class="st10" d="M146.94,274.59c1.18-0.01,2.59,0.06,2.53,1.56c-0.07,1.67-1.62,1.43-2.84,1.54
			c-1.32,0.11-1.84-0.26-1.84-1.71C144.8,274.16,145.99,274.67,146.94,274.59z"/>
        <path class="st10" d="M170.22,274.6c1.68-0.03,3.28,0.09,3.22,1.86c-0.07,1.99-1.88,1.65-3.28,1.76
			c-1.42,0.11-2.04-0.24-2.08-1.86C168.04,274.34,169.22,274.53,170.22,274.6z"/>
        <path class="st2" d="M289.07,283.65c-0.05-2.04-0.23-4.09-0.11-6.12c0.12-1.96,1.14-3.42,3.3-3.51c2.06-0.09,3.15,1.31,3.42,3.09
			c0.32,2.16,0.49,4.38-0.13,6.55C293.39,283.66,291.23,283.65,289.07,283.65z"/>
        <path class="st0" d="M289.07,283.65c2.16,0.01,4.32,0.01,6.47,0.02c-0.17,2-1.27,3.19-3.25,3.13
			C290.4,286.75,289.22,285.65,289.07,283.65z"/>
        <path class="st11" d="M270.16,236.93c0.25,1.06-0.17,1.47-1.24,1.8c-2.58,0.8-5.2,0.3-7.79,0.52c-0.37-0.65-1.01-0.71-1.61-0.61
			c-3.32,0.5-5.6-0.86-7.05-3.8c1.59-4.58,4.26-6.39,8.13-5.52c-0.08,0.67-0.58,0.97-1.1,1.26c-1.93-0.22-2.21,1.38-2.87,2.57
			c-0.53,0.97,0.14,1.59,0.77,1.98c2.46,1.53,5.02,2.78,8,1.33c1.24,0.02,2.48,0.04,3.72,0.06
			C269.48,236.65,269.82,236.79,270.16,236.93z"/>
        <path class="st9" d="M272.41,244.44c-2.05,0.91-4.13,1.69-6.41,1.78c-6.08,0.09-12.11-0.07-17.35-3.81
			c0.05-0.19,0.09-0.38,0.14-0.57c2.38-0.37,4.66,0.63,7.02,0.49c5.13,1.54,10.38,1.97,15.71,1.62
			C271.81,243.93,272.11,244.27,272.41,244.44z"/>
        <path class="st12" d="M259.51,230.57c0.51-0.29,1.02-0.59,1.1-1.26c0.6,0.15,1.25-0.3,1.82,0.17c3.9,0.76,5.53,3.69,6.71,7.04
			c-1.24-0.02-2.48-0.04-3.72-0.06c-0.54-0.7-1.42-0.86-2.14-0.94C260.2,235.18,259.13,233.46,259.51,230.57z"/>
        <path class="st13" d="M272.41,244.44c-0.3-0.17-0.6-0.51-0.89-0.49c-5.33,0.35-10.58-0.09-15.71-1.62
			c-0.03-0.14-0.04-0.29-0.02-0.43c5.27,0.01,10.52-0.21,15.57-1.96c1.42-0.49,1.92,0.5,2.01,1.41
			C273.48,242.4,274.79,244.08,272.41,244.44z"/>
        <path class="st14" d="M248.65,242.41c5.24,3.74,11.27,3.9,17.35,3.81c-0.62,1.7-2.32,1.21-3.41,1.34
			c-3.94,0.46-7.9,0.22-11.78-0.85C248.41,246.05,247.64,244.72,248.65,242.41z"/>
        <path class="st3" d="M263.99,249.41c0.67,2.44-0.53,3.44-2.79,3.59c-3.67,0.25-4.63-0.45-4.69-3.45
			C259,249.5,261.49,249.46,263.99,249.41z"/>
        <path class="st14" d="M252.47,234.83c1.45,2.94,3.73,4.31,7.05,3.8c0.6-0.09,1.25-0.04,1.61,0.61c-2.68,0.86-5.49,0.83-8.06,0.07
			C250.34,238.51,252.37,236.4,252.47,234.83z"/>
        <path class="st13" d="M269.14,236.52c-1.18-3.35-2.81-6.28-6.71-7.04c1.65-1.1,3.18-0.86,4.44,0.59c1.72,1.97,3.06,4.16,3.29,6.86
			C269.82,236.79,269.48,236.65,269.14,236.52z"/>
        <path class="st12" d="M255.79,241.89c-0.02,0.15-0.01,0.29,0.02,0.43c-2.36,0.14-4.64-0.86-7.02-0.49
			c-0.87-1.66,0.46-1.25,1.16-1.13C251.91,241.04,253.85,241.49,255.79,241.89z"/>
        <path class="st15" d="M257.15,288.93c0.14,1.04,0.76,1.83,1.31,2.66c-2.42,1.24-4.99,0.49-7.48,0.44
			c-0.86-0.02-1.63-0.82-1.49-1.88c0.13-0.99,0.96-1.17,1.81-1.18C253.25,288.96,255.2,288.95,257.15,288.93z"/>
        <path class="st15" d="M262.76,291.75c0.55-0.92,1.09-1.85,1.64-2.77c1.51,0.01,3.02-0.04,4.52,0.06c0.85,0.06,1.55,0.63,1.59,1.51
			c0.04,0.92-0.72,1.57-1.52,1.56C266.92,292.1,264.78,292.72,262.76,291.75z"/>
        <path class="st9" d="M259.51,230.57c-0.38,2.89,0.69,4.61,3.76,4.95c0.72,0.08,1.6,0.24,2.14,0.94c-2.98,1.45-5.53,0.19-8-1.33
			c-0.63-0.39-1.31-1.01-0.77-1.98C257.3,231.95,257.58,230.35,259.51,230.57z"/>
	</g>
</g>
</svg>
