<?xml version="1.0" encoding="utf-8"?>
<!-- Generator: Adobe Illustrator 26.2.1, SVG Export Plug-In . SVG Version: 6.00 Build 0)  -->
<svg version="1.1" id="Слой_1"
     xmlns="http://www.w3.org/2000/svg" x="0px" y="0px" viewBox="0 0 456 456"
     style="enable-background:new 0 0 456 456;" xml:space="preserve">
<style type="text/css">
	.st0{fill:#FEFEFE;}
	.st1{fill:#DDDDDD;}
	.st2{fill:#DCDCDC;}
	.st3{fill:#EBE7CB;}
	.st4{fill:#040404;}
	.st5{fill:#070707;}
	.st6{fill:#030303;}
	.st7{fill:#121212;}
	.st8{fill:#FDC073;}
	.st9{fill:#676767;}
	.st10{fill:#CECECE;}
	.st11{fill:#4B4B4B;}
	.st12{fill:#848484;}
	.st13{fill:#A4A4A4;}
	.st14{fill:#333333;}
	.st15{fill:#BE955E;}
</style>
    <g>
	<g>
		<path class="st0" d="M235.86,410.68c-59.81,0-119.61-0.02-179.42,0.07c-2.43,0-2.92-0.47-2.92-2.91
			C53.6,287.98,53.6,168.12,53.5,48.26c0-2.81,0.87-2.99,3.2-2.99c119.73,0.06,239.46,0.06,359.19-0.02c2.56,0,3.1,0.51,3.1,3.09
			c-0.08,119.74-0.08,239.48,0.01,359.22c0,2.86-0.86,3.18-3.37,3.18C355.71,410.67,295.78,410.68,235.86,410.68z M272.37,251.35
			c-0.3,0.64-0.61,1.28-0.91,1.92c-1.07-0.95-0.64-2.21-0.65-3.34c-0.04-5.45,0.08-10.9-0.07-16.35c-0.06-2.14,1.44-5.36-2.81-5.49
			c-0.21-0.01-0.6-0.55-0.57-0.79c0.37-2.78-1.47-5.19-1.46-7.77c0.01-3.18-1.24-4.3-4.15-4.17c1.67-3.56,1.15-7.83-1.64-9.97
			c-1.48-1.14-1.8-2.51-2.39-4.06c-2.01-5.21-3.45-11.15-10.89-11.12c-1.8,0.01-1.26-1.2-1.08-2.23c1.13-6.39,0.85-12.73-0.48-19.07
			c-0.43-2.06-0.96-4.19-0.61-6.35c0.6-3.67-0.15-7.01-2.1-10.19c-1.23-2-2.46-4.12-1.16-6.65c0.36-0.71,0.79-1.68-0.37-2.04
			c-1.01-0.31-1.47,0.6-1.79,1.36c-1.08,2.5-0.62,4.98,0.73,7.14c2.24,3.59,3.07,7.34,2.48,11.52c-0.17,1.25,0.15,2.59,0.4,3.86
			c1.26,6.31,1.93,12.63,0.88,19.07c-0.38,2.32-0.96,3.73-3.78,3.94c-4.34,0.32-7.34,2.9-9.2,6.87c-0.97,2.08-1.26,4.31-1.9,6.46
			c-0.2,0.68,0.2,1.45-1.07,1.84c-3.53,1.1-3.67,4.28-3.59,7.2c0.08,2.94,1.35,5.17,4.73,5.62c2.11,0.28,4.17,0.9,6.25,1.36
			c-1.66,4.71-3.31,9.42-4.97,14.13c-2.19-0.22-2.97-1.42-2.88-3.6c0.14-3.59,0.04-7.19,0.04-11.39c-5.02,4.13-9.5,7.74-13.88,11.46
			c-1.63,1.38-2.5,7.13-1.66,8.95c0.54,1.16,1.54,0.93,2.44,0.94c2.25,0.04,4.51,0.13,6.75-0.01c2.22-0.14,2.92,0.78,2.83,2.9
			c-0.12,2.84,0,5.69,0.02,8.53c-0.03,0.73-0.05,1.46-0.08,2.18c-1.52-2.66-0.68-5.55-0.65-8.31c0.03-3.01-1.08-4.05-3.98-3.83
			c-2.48,0.18-4.99-0.06-7.47,0.07c-2.13,0.11-3-0.62-2.91-2.84c0.14-3.44-0.1-6.89,0.08-10.32c0.14-2.52-0.68-3.97-3.17-4.74
			c-2.36-0.74-4.57-1.93-6.89-2.82c-2.03-0.77-2.97-2.01-2.82-4.3c0.19-2.84,0.06-5.69,0.02-8.54c-0.01-0.55-0.07-1.33-0.42-1.6
			c-0.74-0.58-1.25,0.23-1.76,0.67c-3.5,3-7.07,5.92-10.45,9.04c-3.85,3.57-4.25,7.98-0.96,12.59c-4.34,0-8.3,0.03-12.27-0.01
			c-1.85-0.02-3.38,0.24-3.3,2.61c0.17,4.5-0.4,9.01,0.33,13.49c-0.59,0.12-1.18,0.25-1.77,0.37c0-5.57,0.1-11.15-0.05-16.72
			c-0.06-2.25,1.45-5.57-2.92-5.78c-0.19-0.01-0.55-0.6-0.5-0.85c0.66-3.06-1.77-5.56-1.52-8.49c0.21-2.53-0.78-3.46-3.24-3.18
			c-1.17,0.13-2.37,0.1-3.55,0.01c-1.86-0.14-2.7,0.67-2.45,2.49c0.42,3.12-2.13,5.68-1.6,8.85c0.12,0.7-0.67,1.38-1.41,1.35
			c-2.96-0.14-2.72,1.82-2.71,3.79c0.04,6.17,0.02,12.33,0.03,18.5c-0.21,0.11-0.42,0.21-0.63,0.32
			c-0.04-10.19-0.26-20.39-0.02-30.57c0.09-3.88-0.72-6.28-4.8-7.17c-1.93-0.42-3.67-1.62-5.56-2.3c-1.96-0.71-2.71-1.92-2.59-4.03
			c0.17-2.83,0.05-5.69,0.03-8.53c0-0.56,0.14-1.26-0.57-1.53c-0.67-0.26-1.08,0.29-1.51,0.67c-3.83,3.33-7.5,6.87-11.54,9.93
			c-3.21,2.44-2.31,5.67-1.8,8.39c0.49,2.61,3.44,0.77,5.23,1.26c0.33,0.09,0.71,0.01,1.06,0.01c5.64,0,5.62,0,5.6,5.38
			c-0.03,9.6-0.03,19.2-0.04,28.8c-0.24,0.1-0.47,0.07-0.68-0.09c-0.01-9.59-0.09-19.17,0.02-28.76c0.03-2.48-0.74-3.31-3.23-3.24
			c-5.91,0.15-11.84,0.2-17.75-0.02c-3.03-0.11-4.1,0.65-4.05,3.9c0.15,10.17-0.06,20.35-0.13,30.52c-0.21-0.18-0.43-0.36-0.64-0.55
			c0.03-11.6,0.08-23.21,0.07-34.81c0-2.45,0.93-5.56-3.32-5.58c-0.28,0-0.85-0.71-0.79-0.97c0.69-2.96-1.76-5.33-1.52-8.13
			c0.32-3.72-2.04-3.53-4.55-3.54c-2.63,0-4.22,0.01-5.02,3.63c-0.71,3.19,1.13,8.2-4.21,9.68c-0.78,0.21-0.49,1.49-0.49,2.3
			c0.02,11.96,0.07,23.92,0.1,35.88c-1.64,1.17-2.43,2.66-2.4,4.78c0.1,6.73,0.07,13.46,0.02,20.19c-0.02,3.08,1.49,4.66,4.46,4.72
			c4.13,0.08,8.28,0.18,12.39-0.09c4.72-0.31,8.76-1.97,10.41-7c1.15,0,2.3,0,3.44,0c0.06,0.93,0.1,1.87,0.17,2.8
			c0.24,3.43,2.24,5.03,5.63,4.6c4.18-0.54,3.78-3.79,4.04-6.66c1.77-0.04,3.54-0.08,5.32-0.11c1.1,1.36,2.27,2.66,3.28,4.08
			c1.91,2.69,4.46,3.61,7.33,2.09c3.04-1.61,2.18-4.25,1.03-6.73c1.49-0.02,2.97-0.04,4.46-0.05c0.04,0.7,0.1,1.41,0.12,2.11
			c0.1,3.72,1.43,5.28,4.57,5.36c3.3,0.07,4.78-1.58,4.82-5.41c0.04-3.53,0.09-7.06,0.13-10.59c1.38-0.02,2.76-0.04,4.14-0.06
			c0.07,1.29,0.16,2.58,0.22,3.87c0.31,6.61,4.46,11.47,10.96,12.43c5.18,0.77,10.13,0.12,14.3-3.47c1.99-0.03,3.98-0.07,5.96-0.1
			c1.16,2.91,3.36,3.74,6.27,3.12c2.95-0.63,3.48-2.81,3.39-5.39c-0.04-1.3,0.01-2.6-0.01-3.9c-0.01-1,0.31-1.61,1.46-1.3
			c0.41,7.95,0.41,7.95,7.06,8.33c2.74,3.09,5.27,3.31,8.13,0.71c0.4-0.25,0.81-0.5,1.21-0.76c1.2,0,2.4-0.01,3.6-0.01
			c2.96,2.03,6.14,3.27,9.79,3.69c11.21,1.3,22.38,0.34,33.56-0.29c2.29-0.13,4.7-0.45,6.73-1.9c3.08-2.21,3.36-3.86,1.08-7.04
			c-0.2-0.99-0.41-1.99-0.61-2.98c0.68,0.01,1.35,0.02,2.03,0.03c1.37,4.79,2.96,9.4,8.72,10.55c9.72,3.03,17.42-0.77,19.98-9.85
			c2.15,0.22,4.29,0.44,6.44,0.66c0.46,1.44,0.94,2.86,1.37,4.31c1.32,4.45,3.66,6.09,8.28,5.81c3.94-0.24,5.51-1.87,7.09-7.36
			c1.27,0.04,2.54,0.07,3.81,0.11c1.95,6.06,4.01,7.62,9.11,7.24c4.68-0.35,5.78-3.84,6.86-7.43c2.72,0.07,5.45,0.14,8.17,0.21
			c0.05,0.46,0.12,0.93,0.14,1.39c0.19,3.82,1.68,5.46,4.92,5.38c3.21-0.08,4.57-1.73,4.61-5.66c0.02-2.23-0.03-4.46,0.05-6.68
			c0.03-0.75,0.36-1.52,1.1-0.32c-0.19,5.81-0.19,5.81,4.29,5.8c1.33,1.65,2.59,3.36,4,4.95c1.66,1.88,3.81,2.38,6.14,1.52
			c2.28-0.83,2.6-2.77,2.59-4.93c-0.05-6.64-0.05-13.28,0.01-19.92c0.01-1.47-0.25-2.81-0.88-4.1c0.03-9.25-0.37-18.54,0.25-27.75
			c0.44-6.59-0.96-10.98-8.06-12.13c-0.79-0.13-1.48-0.76-2.26-1.02c-2.14-0.73-2.77-2.21-2.66-4.4c0.16-3.28,0.04-6.57,0.04-10.94
			c-5.13,4.38-9.54,8.19-14.01,11.94c-2.7,2.27-1.95,5.37-1.43,7.94c0.5,2.46,3.22,0.92,4.93,1.2c1.27,0.21,2.61,0.14,3.91,0.02
			c2.28-0.22,3.21,0.61,3.1,3c-0.16,3.43-0.04,6.88-0.04,10.32c0,7.2,0,14.41,0,22.25c-1.09-1.71-0.73-2.92-0.73-4.06
			c-0.04-8.54-0.1-17.09,0.02-25.63c0.04-2.74-0.84-3.84-3.67-3.76c-5.81,0.16-11.63,0.17-17.44-0.01c-2.99-0.09-3.91,1-3.87,3.92
			c0.13,10.44,0.04,20.88,0.07,31.32c0,1.13-0.42,2.42,0.79,3.28c-0.35,1.75-0.7,3.49-1.05,5.24c-1.74-1.01-1.16-2.72-1.16-4.17
			c-0.04-13.64-0.01-27.29-0.03-40.93c0-2.01,0.76-4.53-2.71-4.55c-0.27,0-0.82-0.73-0.76-1.01c0.71-3.18-1.87-5.77-1.55-8.86
			c0.2-1.94-0.52-2.91-2.59-2.73c-1.18,0.1-2.38,0.11-3.56,0c-2.24-0.22-3.37,0.51-3.1,2.95c0.33,2.96-2.16,5.42-1.59,8.49
			c0.12,0.64-0.71,1.31-1.48,1.27c-2.71-0.14-2.63,1.62-2.61,3.51c0.04,6.03,0.02,12.06,0.02,18.31c-4.42-0.88-7.99-3.06-11.81-4.55
			c-1.27-0.49-1.01-1.75-1.01-2.79c-0.02-3.63-0.01-7.26-0.01-11.76c-4.86,4.04-9.13,7.51-13.3,11.09
			c-2.12,1.82-3.51,7.26-2.19,9.39c1.38,2.23,3.89,0.67,5.85,1.09c0.23,0.05,0.47,0,0.71,0.01c6.01,0.06,5.5-0.65,5.31,5.27
			c-0.14,4.18,1.01,8.46-0.69,12.56c-0.16-0.01-0.25-0.1-0.24-0.26c0.08-4.37,0.13-8.74,0.25-13.11c0.06-2.08-0.79-3.02-2.92-3
			c-6.39,0.06-12.77,0.05-19.16,0c-2.2-0.02-2.87,1.08-2.83,3.1C272.32,241.89,272.33,246.62,272.37,251.35z"/>
        <path class="st1" d="M350.52,269.67c-2.72-0.07-5.45-0.14-8.17-0.21c1.52-5.59,3.06-11.17,4.54-16.77
			c1.23-4.63-0.26-6.56-5.17-6.78c-3.12,0.36-4.51,2.26-4.65,5.26c-0.21,0.47-0.43,0.95-0.64,1.42c-1.21-0.86-0.79-2.15-0.79-3.28
			c-0.03-10.44,0.06-20.88-0.07-31.32c-0.04-2.92,0.88-4.02,3.87-3.92c5.81,0.18,11.63,0.16,17.44,0.01
			c2.84-0.08,3.71,1.02,3.67,3.76c-0.12,8.54-0.06,17.08-0.02,25.63c0,1.14-0.35,2.35,0.73,4.06c0-7.84,0-15.04,0-22.25
			c0-3.44-0.12-6.89,0.04-10.32c0.11-2.38-0.81-3.22-3.1-3c-1.29,0.13-2.64,0.19-3.91-0.02c-1.71-0.28-4.44,1.25-4.93-1.2
			c-0.52-2.58-1.27-5.68,1.43-7.94c4.46-3.74,8.87-7.55,14.01-11.94c0,4.37,0.12,7.66-0.04,10.94c-0.11,2.19,0.52,3.67,2.66,4.4
			c0.78,0.27,1.47,0.9,2.26,1.02c7.1,1.15,8.5,5.54,8.06,12.13c-0.62,9.21-0.22,18.5-0.25,27.75c-5.42-2.86-8.36-1.12-8.45,4.89
			c-0.04,2.46,0.45,4.99-0.41,7.75c-2.93-3.92-5.6-7.54-8.34-11.11c-1.5-1.95-3.18-3.43-6.01-2.45c-2.82,0.98-3.66,2.93-3.64,5.72
			C350.68,257.83,350.56,263.75,350.52,269.67z"/>
        <path class="st1" d="M297.12,250.44c1.69-4.1,0.55-8.38,0.69-12.56c0.19-5.92,0.7-5.21-5.31-5.27c-0.24,0-0.48,0.04-0.71-0.01
			c-1.96-0.42-4.47,1.14-5.85-1.09c-1.32-2.13,0.07-7.57,2.19-9.39c4.17-3.58,8.44-7.05,13.3-11.09c0,4.5-0.01,8.13,0.01,11.76
			c0,1.04-0.26,2.3,1.01,2.79c3.83,1.48,7.4,3.66,11.81,4.55c0-6.25,0.03-12.28-0.02-18.31c-0.01-1.9-0.1-3.65,2.61-3.51
			c0.76,0.04,1.59-0.63,1.48-1.27c-0.56-3.07,1.92-5.53,1.59-8.49c-0.27-2.44,0.86-3.17,3.1-2.95c1.17,0.12,2.38,0.11,3.56,0
			c2.07-0.18,2.8,0.79,2.59,2.73c-0.32,3.09,2.25,5.68,1.55,8.86c-0.06,0.28,0.49,1.01,0.76,1.01c3.47,0.03,2.71,2.54,2.71,4.55
			c0.02,13.64-0.01,27.29,0.03,40.93c0,1.46-0.57,3.16,1.16,4.17c-0.19,0.63-0.37,1.25-0.56,1.88c-0.09,0.05-0.25,0.12-0.25,0.16
			c0.02,0.17,0.1,0.33,0.15,0.5c-0.27,1.11-0.54,2.21-1.07,4.38c-1.15-5.27-2.05-9.48-2.99-13.7c-0.61-2.73-1.87-4.84-5.04-5
			c-3.5-1.63-5.49,0.51-7.02,3.09c-1.25,2.11-1.71,4.55-1.44,7.06c-0.55,2.48-1.11,4.95-1.8,8.07c-2.1-5.72-2.46-11.14-4.63-16.04
			c-1.56-2.9-3.94-3.66-6.68-2.01c-2.77,1.67-3.57,4.14-1.69,7.09c1.15,4.49,2.31,8.98,3.46,13.48c-2.15-0.22-4.29-0.44-6.44-0.66
			C298.89,260.86,300.42,255.3,297.12,250.44z"/>
        <path class="st2" d="M186.99,273.11c-1.99,0.03-3.98,0.07-5.96,0.1c2.93-4.09,1.26-8.66,1.3-13.04c0-0.52-0.75-1.21-1.32-1.56
			c-2.37-1.46-10.26-0.26-12.22,1.8c-2.55-1.55-0.65-4.1-1.37-6.06c2.36-1.74,4.34-0.67,6.39,0.72c3.02,2.03,5.36,1.64,7.49-1.07
			c2.07-1.41,0.54-2.76-0.25-3.83c-3.5-4.67-8.47-5.48-13.87-4.98c-0.73-4.48-0.17-9-0.34-13.49c-0.09-2.37,1.45-2.63,3.3-2.61
			c3.97,0.04,7.93,0.01,12.27,0.01c-3.3-4.62-2.9-9.03,0.96-12.59c3.38-3.13,6.95-6.04,10.45-9.04c0.51-0.44,1.02-1.25,1.76-0.67
			c0.35,0.27,0.41,1.05,0.42,1.6c0.04,2.85,0.16,5.7-0.02,8.54c-0.15,2.29,0.8,3.53,2.82,4.3c2.32,0.89,4.53,2.08,6.89,2.82
			c2.48,0.77,3.3,2.22,3.17,4.74c-0.18,3.43,0.06,6.88-0.08,10.32c-0.09,2.21,0.78,2.95,2.91,2.84c2.48-0.13,4.99,0.11,7.47-0.07
			c2.9-0.21,4.02,0.82,3.98,3.83c-0.03,2.76-0.87,5.65,0.65,8.31c-2.15,4.82-3.84,9.8-4.96,14.96c-1.27,1.49-2,3.06-0.72,4.92
			c-1.2,0-2.4,0.01-3.6,0.01c0.03-7.68,0.07-15.37,0.09-23.05c0.01-3.07-1.99-5.39-4.9-5.34c-2.73,0.04-4.81,1.16-4.72,4.4
			c-0.26,7.65-0.26,7.65-8.07,7.42c-0.09-2.45-0.08-4.91-0.29-7.35c-0.31-3.66-2.74-5.1-6.29-3.86c-2.96,0.46-3.22,2.66-3.23,5.01
			C187.05,258.47,187.02,265.79,186.99,273.11z"/>
        <path class="st3" d="M218.82,268.99c1.12-5.16,2.81-10.14,4.96-14.96c0.03-0.73,0.05-1.46,0.08-2.18
			c2.97-5.62,4.32-11.82,6.34-17.78c1.66-4.71,3.31-9.42,4.97-14.13c0,0,0.33-0.08,0.33-0.08s0.33,0.1,0.33,0.1
			c0.04,4.26,1.48,6.48,4.78,6.96c3.53,0.51,6.83,0.14,8.71-3.55c1.48,1.37,1.34,3.7,2.96,4.99c2.93,8.33,6.85,16.25,10.42,24.3
			c1.9,4.28,3.08,8.9,5.95,12.73c0.2,0.99,0.41,1.99,0.61,2.98c-6.92-2.66-14.14-1.14-21.22-1.46c-0.05-2.57,0.12-5.17-0.19-7.71
			c-0.43-3.55,0.63-4.84,4.41-4.59c4.2,0.29,5.7-2.26,4.34-6.37c-0.64-1.79-2.18-1.89-3.73-2.09c-7.04-0.92-14.03,1.42-21.08,0.23
			c-0.58-0.1-1.37,0.36-1.59,1.18c-1.87,3.89-0.81,6.6,2.82,7.09c1.15,0.16,2.35,0.15,3.51,0.04c1.76-0.17,2.2,0.61,2.13,2.23
			c-0.14,3.51-0.14,7.02-0.19,10.53C231.91,267.88,225.22,266.58,218.82,268.99z"/>
        <path class="st1" d="M128.36,246.14c0.01-9.6,0.01-19.2,0.04-28.8c0.02-5.38,0.05-5.38-5.6-5.38c-0.36,0-0.73,0.08-1.06-0.01
			c-1.79-0.49-4.74,1.35-5.23-1.26c-0.51-2.72-1.41-5.95,1.8-8.39c4.04-3.06,7.7-6.6,11.54-9.93c0.43-0.37,0.84-0.93,1.51-0.67
			c0.71,0.27,0.56,0.97,0.57,1.53c0.02,2.84,0.14,5.7-0.03,8.53c-0.13,2.11,0.63,3.32,2.59,4.03c1.89,0.68,3.63,1.88,5.56,2.3
			c4.08,0.88,4.9,3.29,4.8,7.17c-0.25,10.18-0.02,20.38,0.02,30.57l-0.12,0.32c-2.43,0.66-2.85,2.51-2.86,4.68
			c-0.01,6.05-0.07,12.09-0.11,18.14c-1.49,0.02-2.97,0.04-4.46,0.05c-0.91-1.07-1.73-2.24-2.74-3.2c-1.81-1.73-2.4-3.03,0.22-4.74
			c1.81-1.18,2.55-3.33,2.09-5.65C136.85,249.84,134.37,247.13,128.36,246.14z"/>
        <path class="st1" d="M110.5,268.96c-1.15,0-2.3,0-3.44,0c0.41-4.69-2.09-7.39-6.55-8.74c4.92-3.22,5.67-5.24,3.61-9.1
			c-0.49-0.91-1.05-1.78-1.58-2.66c0.07-10.17,0.29-20.35,0.13-30.52c-0.05-3.25,1.01-4.01,4.05-3.9
			c5.91,0.22,11.83,0.17,17.75,0.02c2.49-0.06,3.26,0.76,3.23,3.24c-0.11,9.58-0.03,19.17-0.02,28.76
			c-0.27,0.07-0.54,0.14-0.81,0.21c-3.42-0.04-6.84-0.11-10.27-0.1c-4.66,0.01-5.89,1.24-5.94,5.82
			C110.61,257.64,110.56,263.3,110.5,268.96z"/>
        <path class="st4" d="M305.82,266.78c-1.15-4.49-2.31-8.98-3.46-13.48c1.84-3.26,3.65-6.56,8.37-5.08
			c2.16,4.9,2.53,10.32,4.63,16.04c0.7-3.11,1.25-5.59,1.8-8.07c1.64-0.01,2.08-1.03,2.37-2.47c0.6-2.98,1.61-5.72,5.23-6.28
			c0.66-0.1,0.78-0.8,0.85-1.4c3.17,0.17,4.43,2.27,5.04,5c0.94,4.21,1.84,8.43,2.99,13.7c0.53-2.17,0.8-3.27,1.07-4.38
			c0.15-0.2,0.18-0.42,0.1-0.66c0.19-0.63,0.37-1.25,0.56-1.88c0.35-1.75,0.7-3.49,1.05-5.24c0.21-0.47,0.43-0.95,0.64-1.42
			c2.6-0.82,4.95-1.87,4.65-5.26c4.9,0.22,6.4,2.15,5.17,6.78c-1.48,5.6-3.02,11.18-4.54,16.77c-1.08,3.59-2.18,7.08-6.86,7.43
			c-5.1,0.38-7.16-1.18-9.11-7.24c-0.16-2.87-0.94-5.59-1.87-8.94c-0.39,1.16-0.63,1.69-0.74,2.25c-0.42,2.19-0.8,4.39-1.2,6.58
			c-1.58,5.49-3.15,7.11-7.09,7.36c-4.63,0.28-6.96-1.36-8.28-5.81C306.77,269.65,306.28,268.22,305.82,266.78z"/>
        <path class="st1" d="M82.17,246.36c-0.04-11.96-0.08-23.92-0.1-35.88c0-0.81-0.29-2.08,0.49-2.3c5.34-1.47,3.5-6.49,4.21-9.68
			c0.8-3.62,2.39-3.63,5.02-3.63c2.51,0,4.87-0.18,4.55,3.54c-0.24,2.8,2.21,5.17,1.52,8.13c-0.06,0.26,0.51,0.97,0.79,0.97
			c4.25,0.02,3.32,3.13,3.32,5.58c0.01,11.6-0.04,23.21-0.07,34.81C95.48,245.39,88.81,246.11,82.17,246.36z"/>
        <path class="st5" d="M350.52,269.67c0.05-5.92,0.16-11.84,0.12-17.76c-0.02-2.78,0.82-4.74,3.64-5.72
			c2.83-0.98,4.52,0.5,6.01,2.45c2.74,3.56,5.4,7.19,8.34,11.11c0.85-2.76,0.37-5.29,0.41-7.75c0.1-6.01,3.04-7.75,8.45-4.89
			c0.63,1.3,0.89,2.64,0.88,4.1c-0.06,6.64-0.06,13.28-0.01,19.92c0.02,2.16-0.31,4.1-2.59,4.93c-2.33,0.85-4.48,0.36-6.14-1.52
			c-1.4-1.59-2.67-3.29-4-4.95c-1.16-2.13-2.57-4.08-4.29-5.8c-0.74-1.2-1.08-0.44-1.1,0.32c-0.08,2.22-0.03,4.45-0.05,6.68
			c-0.04,3.92-1.4,5.58-4.61,5.66c-3.25,0.08-4.74-1.56-4.92-5.38C350.63,270.6,350.56,270.14,350.52,269.67z"/>
        <path class="st4" d="M82.17,246.36c6.64-0.26,13.31-0.97,19.73,1.55c0.21,0.18,0.43,0.36,0.64,0.55c0.53,0.89,1.1,1.75,1.58,2.66
			c2.06,3.86,1.31,5.88-3.61,9.1c4.46,1.35,6.96,4.05,6.55,8.74c-1.66,5.03-5.7,6.69-10.41,7c-4.12,0.27-8.26,0.17-12.39,0.09
			c-2.97-0.06-4.49-1.63-4.46-4.72c0.05-6.73,0.08-13.46-0.02-20.19C79.74,249.03,80.53,247.54,82.17,246.36z M92.48,268.86
			c1.95-0.07,4.63,0.37,4.54-2.49c-0.09-2.83-2.8-2.23-4.74-2.29c-1.6-0.05-3.17-0.48-3.21,2.3
			C89.03,269.35,90.71,268.9,92.48,268.86z M91.96,253.38c-1.26,0.1-2.84-0.58-2.85,1.84c0,1.92,0.68,2.42,2.44,2.27
			c1.62-0.14,3.68,0.18,3.77-2.04C95.4,253.46,93.54,253.37,91.96,253.38z"/>
        <path class="st2" d="M155.55,260.38c-1.38,0.02-2.76,0.04-4.14,0.06c-0.07-2.86-0.13-5.72-0.2-8.57c0.61-4.33-0.76-5.85-5.73-6.34
			c0-6.17,0.02-12.33-0.03-18.5c-0.01-1.97-0.26-3.94,2.71-3.79c0.74,0.04,1.52-0.65,1.41-1.35c-0.54-3.17,2.02-5.73,1.6-8.85
			c-0.25-1.82,0.59-2.63,2.45-2.49c1.18,0.09,2.38,0.12,3.55-0.01c2.46-0.28,3.45,0.66,3.24,3.18c-0.24,2.93,2.18,5.44,1.52,8.49
			c-0.05,0.25,0.31,0.84,0.5,0.85c4.38,0.21,2.86,3.53,2.92,5.78c0.15,5.57,0.05,11.15,0.05,16.72c-0.27,0.25-0.54,0.5-0.82,0.74
			c-0.44,0.08-0.92,0.09-1.31,0.27C157.28,249.25,155.65,254.39,155.55,260.38z"/>
        <path class="st4" d="M110.5,268.96c0.05-5.66,0.11-11.32,0.16-16.98c0.04-4.57,1.28-5.81,5.94-5.82c3.42-0.01,6.84,0.06,10.27,0.1
			c0.11,1.32,0.2,2.62,2.06,2.6c3.09-0.03,4.6,1.81,5.31,4.59c0.34,1.33,0.91,2.46,2.64,1.98c0.46,2.31-0.28,4.47-2.09,5.65
			c-2.63,1.71-2.03,3.01-0.22,4.74c1.01,0.96,1.83,2.13,2.74,3.2c1.15,2.48,2.01,5.12-1.03,6.73c-2.87,1.52-5.42,0.6-7.33-2.09
			c-1.01-1.42-2.18-2.72-3.28-4.08c-0.79-1.15-1.58-2.29-2.36-3.44c-0.55-0.81-1.36-0.84-2.19-0.75c-1.24,0.13-0.95,1.13-0.96,1.89
			c-0.01,0.8,0.12,1.6,0.19,2.41c-0.26,2.88,0.14,6.13-4.04,6.66c-3.39,0.44-5.4-1.16-5.63-4.6
			C110.61,270.83,110.56,269.9,110.5,268.96z M122.9,253.38c-1.33-0.09-2.9-0.34-2.85,2.34c0.04,2.15,0.87,2.62,2.76,2.47
			c1.86-0.15,4.26,0.3,4.36-2.34C127.26,253.5,125.14,253.35,122.9,253.38z"/>
        <path class="st6" d="M155.55,260.38c0.11-5.99,1.73-11.13,7.73-13.81c0.4-0.18,0.87-0.18,1.31-0.27c-0.19,2.01,0.85,1.99,2.4,1.64
			c5.43-1.21,9.99-0.05,12.93,5.12c0.3,0.54,0.74,0.9,1.39,0.93c-2.13,2.71-4.48,3.1-7.49,1.07c-2.06-1.39-4.03-2.46-6.39-0.72
			c-3.66,2.53-1.83,6.31-1.97,9.52c-0.18,4.05,3.34,6.05,7.13,4.49c0.82-0.34,1.57-0.65,1.5-1.68c-0.06-0.97-0.83-0.96-1.55-1.03
			c-3.22-0.33-4.13-2.33-3.73-5.24c1.96-2.05,9.85-3.26,12.22-1.8c0.57,0.35,1.32,1.03,1.32,1.56c-0.04,4.38,1.63,8.96-1.3,13.04
			c-4.18,3.59-9.13,4.24-14.3,3.47c-6.5-0.97-10.65-5.82-10.96-12.43C155.71,262.96,155.62,261.67,155.55,260.38z"/>
        <path class="st1" d="M268.65,265.39c-2.87-3.83-4.05-8.45-5.95-12.73c-3.57-8.06-7.49-15.97-10.42-24.3
			c1.07-0.15,2.95,0.33,2.7-1.32c-0.51-3.4,2.2-6.13,1.59-9.44c1.64-0.95,3.29-1.87,5.18-2.24c2.91-0.12,4.16,0.99,4.15,4.17
			c-0.01,2.57,1.84,4.98,1.46,7.77c-0.03,0.25,0.36,0.78,0.57,0.79c4.25,0.13,2.75,3.35,2.81,5.49c0.15,5.45,0.03,10.9,0.07,16.35
			c0.01,1.13-0.41,2.4,0.65,3.34c-1.08,4-0.67,8.09-0.79,12.15C270,265.41,269.32,265.4,268.65,265.39z"/>
        <path class="st5" d="M196.89,257.36c7.82,0.23,7.82,0.23,8.07-7.42c0.9-0.18,1.75-0.2,2.53-1c1.94-1.99,3.35-0.78,4.32,1.13
			c0.71,1.41,0.52,3,0.51,4.54c-0.02,5.55-0.1,11.11-0.05,16.66c0.01,1.17-0.68,2.68,1.01,3.4c-2.86,2.6-5.39,2.38-8.13-0.71
			c-0.07-0.7-0.17-1.4-0.19-2.1c-0.23-6.67-0.23-6.67-6.86-6.22c-1.15-0.31-1.46,0.29-1.46,1.3c0.01,1.3-0.04,2.6,0.01,3.9
			c0.09,2.58-0.44,4.75-3.39,5.39c-2.9,0.62-5.11-0.21-6.27-3.12c0.03-7.32,0.06-14.64,0.1-21.96c0.01-2.35,0.27-4.55,3.23-5.01
			c3.19,2.34,4.28,5.44,3.73,9.35C193.76,257.55,195.3,257.71,196.89,257.36z"/>
        <path class="st6" d="M297.12,250.44c3.3,4.86,1.77,10.42,2.27,15.68c-2.56,9.09-10.26,12.88-19.98,9.85
			c-0.03-0.94-0.09-1.76-0.92-2.53c-5.65-5.18-7.1-12.18-4.71-19.3c1.41-4.18,4.05-6.17,8.2-6.64c2.96-0.34,5.85-0.32,8.65,0.96
			c1.18,0.54,2.57,1.66,3.68-0.22c1.22,0.16,1.63,1.41,2.58,1.94C296.87,250.34,296.95,250.43,297.12,250.44z M289.48,265.43
			c0.82-2.89,0.61-5.84,0.18-8.71c-0.36-2.37-1.8-4.23-4.54-4.11c-2.87,0.12-4.23,2.06-4.38,4.66c-0.16,2.7,0.08,5.42,0.14,8.13
			c0.19,2.66,1.76,4.13,4.28,4.19C287.79,269.67,289.25,268.09,289.48,265.43z"/>
        <path class="st7" d="M261.75,215.35c-1.89,0.37-3.54,1.29-5.18,2.24c-2.51,0.64-5.01,1.28-7.52,1.92
			c-0.51,0.13-1.01,0.26-1.52,0.39c-3.32,0.06-6.63,0.12-9.95,0.19c-0.58-0.05-1.17-0.09-1.75-0.14l-0.33-0.1
			c0,0-0.33,0.08-0.33,0.08c-2.08-0.47-4.14-1.09-6.25-1.36c-3.38-0.45-4.65-2.67-4.73-5.62c-0.08-2.93,0.06-6.11,3.59-7.2
			c1.26-0.39,0.86-1.16,1.07-1.84c0.64-2.15,0.92-4.38,1.9-6.46c1.86-3.98,4.86-6.55,9.2-6.87c2.82-0.21,3.4-1.62,3.78-3.94
			c1.05-6.44,0.38-12.75-0.88-19.07c-0.25-1.27-0.58-2.62-0.4-3.86c0.58-4.18-0.24-7.93-2.48-11.52c-1.35-2.16-1.81-4.64-0.73-7.14
			c0.33-0.76,0.79-1.67,1.79-1.36c1.16,0.36,0.73,1.33,0.37,2.04c-1.29,2.53-0.06,4.65,1.16,6.65c1.95,3.18,2.7,6.52,2.1,10.19
			c-0.35,2.16,0.18,4.29,0.61,6.35c1.33,6.35,1.61,12.68,0.48,19.07c-0.18,1.03-0.72,2.23,1.08,2.23
			c7.44-0.03,8.88,5.91,10.89,11.12c0.6,1.55,0.91,2.92,2.39,4.06C262.9,207.52,263.43,211.8,261.75,215.35z M236.63,209.92
			c-2.58-0.54-5.15-1.14-7.75-1.58c-0.94-0.16-2.71-0.7-1.55,1.51c-0.06,0.25-0.12,0.51-0.19,0.76c-1.35,3.06-0.32,4.84,2.87,5.72
			c5.16,1.42,10.42,1.74,15.66,1.13c1.45-0.17,3.71,0.48,4.53-1.78c3.02-0.13,5.79-1.17,8.52-2.37c3.17-0.48,1.42-2.71,1.27-4.12
			c-0.13-1.2-0.79-2.52-2.67-1.87C250.62,209.64,243.64,209.93,236.63,209.92z M245.46,193.41c-0.76-0.63-1.62-0.02-2.42-0.22
			c-5.15-1.15-8.69,1.26-10.81,7.34c-0.14,2.08-2.84,4.88,0.79,5.96c3.42,1.02,7.15,1.06,10.71-0.09c3.44-0.29,6.92,0.38,10.35-0.69
			c1.42-0.44,1.97-0.99,1.64-2.4c-0.31-3.59-2.08-6.5-4.37-9.12C249.68,192.27,247.65,191.95,245.46,193.41z"/>
        <path class="st8" d="M248.03,266.91c7.09,0.32,14.3-1.2,21.22,1.46c2.28,3.18,2.01,4.82-1.08,7.04c-2.02,1.45-4.43,1.78-6.73,1.9
			c-11.17,0.62-22.35,1.58-33.56,0.29c-3.65-0.42-6.83-1.65-9.79-3.69c-1.28-1.86-0.55-3.43,0.72-4.92
			c6.4-2.41,13.09-1.1,19.64-1.53c0,1.66-0.01,3.32-0.01,4.98c-2.59,0.02-5.18,0.03-7.77,0.05c-1.13,0.01-2.23,0.25-2.4,1.57
			c-0.19,1.41,0.83,2.48,1.98,2.5c3.32,0.06,6.73,1.07,9.94-0.59c1.88,0.61,3.79,0.57,5.7,0.21c2.69,1.29,5.53,0.47,8.29,0.49
			c1.06,0.01,2.07-0.86,2.01-2.08c-0.05-1.17-0.98-1.94-2.12-2.01c-2-0.13-4.01-0.07-6.01-0.08
			C248.06,270.63,248.05,268.77,248.03,266.91z"/>
        <path class="st1" d="M296.87,250.18c-0.95-0.53-1.36-1.77-2.58-1.94c-0.25-0.73-0.87-1.06-1.5-1.4
			c-7.18-3.92-13.86-2.45-20.43,4.51c-0.05-4.73-0.06-9.46-0.16-14.19c-0.04-2.01,0.62-3.11,2.83-3.1c6.39,0.05,12.77,0.05,19.16,0
			c2.14-0.02,2.98,0.92,2.92,3C297,241.44,296.95,245.81,296.87,250.18z"/>
        <path class="st1" d="M230.2,234.06c-2.02,5.96-3.37,12.16-6.34,17.78c-0.02-2.84-0.14-5.69-0.02-8.53
			c0.09-2.12-0.61-3.04-2.83-2.9c-2.24,0.14-4.5,0.06-6.75,0.01c-0.9-0.02-1.9,0.21-2.44-0.94c-0.85-1.82,0.03-7.57,1.66-8.95
			c4.38-3.72,8.86-7.33,13.88-11.46c0,4.2,0.1,7.8-0.04,11.39C227.23,232.64,228,233.84,230.2,234.06z"/>
        <path class="st6" d="M151.21,251.86c0.07,2.86,0.13,5.72,0.2,8.57c-0.04,3.53-0.09,7.06-0.13,10.59
			c-0.05,3.83-1.52,5.49-4.82,5.41c-3.14-0.07-4.47-1.64-4.57-5.36c-0.02-0.7-0.08-1.41-0.12-2.11c0.04-6.05,0.1-12.09,0.11-18.14
			c0.01-2.17,0.42-4.02,2.86-4.68C147.18,247.73,148.51,250.57,151.21,251.86z"/>
        <path class="st9" d="M272.37,251.35c6.57-6.96,13.25-8.43,20.43-4.51c0.62,0.34,1.24,0.67,1.5,1.4c-1.11,1.89-2.5,0.76-3.68,0.22
			c-2.8-1.28-5.69-1.3-8.65-0.96c-4.15,0.47-6.8,2.46-8.2,6.64c-2.39,7.12-0.93,14.12,4.71,19.3c0.84,0.77,0.9,1.59,0.92,2.53
			c-5.77-1.15-7.35-5.76-8.72-10.55c0.11-4.06-0.29-8.15,0.79-12.15C271.77,252.63,272.07,251.99,272.37,251.35z"/>
        <path class="st9" d="M213.28,274.68c-1.69-0.72-1-2.24-1.01-3.4c-0.05-5.55,0.03-11.11,0.05-16.66c0.01-1.53,0.2-3.13-0.51-4.54
			c-0.97-1.91-2.38-3.13-4.32-1.13c-0.78,0.8-1.63,0.82-2.53,1c-0.08-3.24,1.99-4.36,4.72-4.4c2.91-0.05,4.91,2.27,4.9,5.34
			c-0.02,7.68-0.06,15.37-0.09,23.05C214.09,274.18,213.69,274.43,213.28,274.68z"/>
        <path class="st10" d="M198.1,265.64c6.63-0.45,6.63-0.45,6.86,6.22c0.02,0.7,0.13,1.4,0.19,2.1
			C198.5,273.59,198.5,273.59,198.1,265.64z"/>
        <path class="st9" d="M181.3,254c-0.65-0.03-1.08-0.39-1.39-0.93c-2.93-5.17-7.5-6.33-12.93-5.12c-1.55,0.35-2.59,0.36-2.4-1.64
			c0.27-0.25,0.54-0.5,0.82-0.74c0.59-0.12,1.18-0.25,1.77-0.37c5.4-0.5,10.37,0.31,13.87,4.98
			C181.84,251.23,183.38,252.59,181.3,254z"/>
        <path class="st9" d="M136.89,255.44c-1.73,0.47-2.3-0.66-2.64-1.98c-0.71-2.78-2.22-4.62-5.31-4.59c-1.86,0.02-1.94-1.28-2.06-2.6
			c0.27-0.07,0.54-0.14,0.81-0.21c0.21,0.16,0.43,0.18,0.68,0.09C134.37,247.13,136.85,249.84,136.89,255.44z"/>
        <path class="st9" d="M151.21,251.86c-2.7-1.29-4.03-4.13-6.48-5.71l0.12-0.32c0.21-0.11,0.42-0.21,0.63-0.32
			C150.45,246.01,151.82,247.52,151.21,251.86z"/>
        <path class="st10" d="M322.57,269.54c0.4-2.19,0.77-4.39,1.2-6.58c0.11-0.56,0.35-1.09,0.74-2.25c0.93,3.36,1.71,6.08,1.87,8.94
			C325.11,269.62,323.84,269.58,322.57,269.54z"/>
        <path class="st10" d="M120.34,269.7c-0.07-0.8-0.2-1.6-0.19-2.41c0-0.76-0.29-1.76,0.96-1.89c0.83-0.09,1.64-0.06,2.19,0.75
			c0.78,1.15,1.57,2.29,2.36,3.44C123.89,269.62,122.11,269.66,120.34,269.7z"/>
        <path class="st10" d="M361.34,263.79c1.72,1.72,3.13,3.67,4.29,5.8C361.16,269.6,361.16,269.6,361.34,263.79z"/>
        <path class="st9" d="M341.71,245.92c0.3,3.39-2.05,4.43-4.65,5.26C337.2,248.18,338.59,246.28,341.71,245.92z"/>
        <path class="st9" d="M310.74,248.22c-4.72-1.48-6.53,1.82-8.37,5.08c-1.88-2.95-1.07-5.42,1.69-7.09
			C306.8,244.57,309.18,245.32,310.74,248.22z"/>
        <path class="st9" d="M325.62,246.04c-0.08,0.6-0.19,1.3-0.85,1.4c-3.62,0.55-4.63,3.29-5.23,6.28c-0.29,1.44-0.73,2.46-2.37,2.47
			c-0.27-2.51,0.2-4.95,1.44-7.06C320.13,246.55,322.12,244.42,325.62,246.04z"/>
        <path class="st0" d="M334.82,259.71c0.08,0.24,0.05,0.45-0.1,0.66c-0.06-0.16-0.13-0.33-0.15-0.5
			C334.56,259.83,334.73,259.77,334.82,259.71z"/>
        <path class="st1" d="M168.79,260.4c-0.41,2.92,0.51,4.91,3.73,5.24c0.72,0.07,1.49,0.06,1.55,1.03c0.07,1.03-0.67,1.34-1.5,1.68
			c-3.79,1.56-7.31-0.43-7.13-4.49c0.14-3.21-1.69-6.99,1.97-9.52C168.14,256.3,166.24,258.86,168.79,260.4z"/>
        <path class="st9" d="M196.89,257.36c-1.59,0.35-3.13,0.2-2.84-1.87c0.55-3.91-0.55-7.01-3.73-9.35c3.55-1.24,5.98,0.2,6.29,3.86
			C196.81,252.45,196.81,254.91,196.89,257.36z"/>
        <path class="st6" d="M245.89,276.18c-1.92,0.37-3.82,0.4-5.7-0.21c-0.74-1.1-1.57-2.16-1.75-3.53c0-1.66,0.01-3.32,0.01-4.98
			c0.05-3.51,0.05-7.03,0.19-10.53c0.07-1.62-0.37-2.41-2.13-2.23c-1.16,0.11-2.36,0.12-3.51-0.04c-3.63-0.49-4.69-3.2-2.82-7.09
			c1.26,0.97,2.66,1.3,4.26,1.26c3.3-0.07,6.6,0.19,9.89,0.05c4.08-0.17,8.23,0.77,12.25-0.63c1.36,4.11-0.14,6.65-4.34,6.37
			c-3.78-0.26-4.84,1.04-4.41,4.59c0.31,2.54,0.14,5.14,0.19,7.71c0.01,1.86,0.03,3.72,0.04,5.59
			C247.35,273.72,246.62,274.95,245.89,276.18z"/>
        <path class="st9" d="M256.59,248.24c-4.02,1.4-8.16,0.46-12.25,0.63c-3.29,0.14-6.6-0.12-9.89-0.05c-1.61,0.03-3-0.3-4.26-1.26
			c0.22-0.82,1.01-1.28,1.59-1.18c7.05,1.19,14.04-1.15,21.08-0.23C254.41,246.35,255.96,246.46,256.59,248.24z"/>
        <path class="st0" d="M249.05,219.52c2.51-0.64,5.01-1.28,7.52-1.92c0.6,3.32-2.11,6.04-1.59,9.44c0.25,1.65-1.63,1.17-2.7,1.32
			c-1.62-1.29-1.48-3.62-2.96-4.99C249.23,222.08,249.14,220.8,249.05,219.52z"/>
        <path class="st8" d="M249.05,219.52c0.09,1.28,0.18,2.56,0.26,3.85c-1.88,3.69-5.17,4.06-8.71,3.55c-3.3-0.48-4.74-2.7-4.78-6.96
			c0.58,0.05,1.17,0.09,1.75,0.14c0.08,3.99,1.36,4.93,6.24,4.59c3.01-0.21,4.6-1.53,3.71-4.78
			C248.04,219.78,248.55,219.65,249.05,219.52z"/>
        <path class="st10" d="M92.48,268.86c-1.76,0.04-3.45,0.5-3.41-2.48c0.04-2.78,1.61-2.35,3.21-2.3c1.93,0.06,4.64-0.54,4.74,2.29
			C97.1,269.23,94.43,268.79,92.48,268.86z"/>
        <path class="st10" d="M91.96,253.38c1.57-0.01,3.44,0.08,3.36,2.07c-0.09,2.22-2.15,1.9-3.77,2.04c-1.76,0.15-2.44-0.35-2.44-2.27
			C89.12,252.8,90.7,253.48,91.96,253.38z"/>
        <path class="st10" d="M122.9,253.38c2.24-0.03,4.36,0.12,4.27,2.47c-0.1,2.65-2.5,2.19-4.36,2.34c-1.89,0.15-2.72-0.32-2.76-2.47
			C120,253.04,121.57,253.29,122.9,253.38z"/>
        <path class="st2" d="M280.87,265.41c-0.06-2.71-0.31-5.44-0.14-8.13c0.16-2.61,1.52-4.54,4.38-4.66c2.74-0.12,4.19,1.74,4.54,4.11
			c0.43,2.87,0.64,5.83-0.18,8.71C286.61,265.43,283.74,265.42,280.87,265.41z"/>
        <path class="st0" d="M280.87,265.41c2.87,0.01,5.74,0.02,8.6,0.02c-0.22,2.66-1.69,4.23-4.32,4.17
			C282.63,269.54,281.06,268.07,280.87,265.41z"/>
        <path class="st11" d="M255.73,203.32c0.33,1.41-0.22,1.95-1.64,2.4c-3.43,1.07-6.91,0.4-10.35,0.69
			c-0.49-0.87-1.34-0.94-2.14-0.82c-4.41,0.67-7.44-1.15-9.36-5.05c2.12-6.09,5.66-8.49,10.81-7.34c-0.11,0.89-0.77,1.29-1.46,1.68
			c-2.56-0.3-2.94,1.84-3.81,3.42c-0.71,1.29,0.19,2.11,1.03,2.63c3.27,2.03,6.67,3.7,10.63,1.77c1.65,0.02,3.3,0.05,4.95,0.07
			C254.83,202.95,255.28,203.14,255.73,203.32z"/>
        <path class="st9" d="M258.72,213.3c-2.72,1.21-5.49,2.24-8.52,2.37c-8.08,0.12-16.09-0.09-23.06-5.06
			c0.06-0.25,0.12-0.51,0.19-0.76c3.16-0.5,6.19,0.83,9.33,0.65c6.82,2.04,13.8,2.62,20.88,2.16
			C257.92,212.63,258.33,213.07,258.72,213.3z"/>
        <path class="st12" d="M241.58,194.87c0.68-0.39,1.35-0.79,1.46-1.68c0.79,0.21,1.66-0.4,2.42,0.22c5.18,1.01,7.35,4.9,8.92,9.36
			c-1.65-0.02-3.3-0.05-4.95-0.07c-0.72-0.93-1.89-1.14-2.85-1.25C242.5,201,241.08,198.71,241.58,194.87z"/>
        <path class="st13" d="M258.72,213.3c-0.39-0.23-0.8-0.67-1.18-0.65c-7.09,0.47-14.06-0.12-20.88-2.16
			c-0.05-0.19-0.05-0.38-0.03-0.58c7.01,0.01,13.99-0.27,20.69-2.61c1.88-0.65,2.55,0.67,2.67,1.87
			C260.15,210.59,261.89,212.82,258.72,213.3z"/>
        <path class="st14" d="M227.15,210.61c6.97,4.97,14.98,5.18,23.06,5.06c-0.82,2.26-3.09,1.61-4.53,1.78
			c-5.24,0.61-10.5,0.29-15.66-1.13C226.83,215.45,225.8,213.67,227.15,210.61z"/>
        <path class="st3" d="M247.53,219.91c0.89,3.25-0.7,4.57-3.71,4.78c-4.88,0.34-6.16-0.6-6.24-4.59
			C240.9,220.03,244.22,219.97,247.53,219.91z"/>
        <path class="st14" d="M232.23,200.53c1.92,3.91,4.95,5.73,9.36,5.05c0.8-0.12,1.66-0.05,2.14,0.82
			c-3.56,1.15-7.29,1.11-10.71,0.09C229.39,205.41,232.09,202.61,232.23,200.53z"/>
        <path class="st13" d="M254.37,202.77c-1.57-4.46-3.73-8.35-8.92-9.36c2.2-1.46,4.22-1.14,5.91,0.79c2.29,2.62,4.06,5.53,4.37,9.12
			C255.28,203.14,254.83,202.95,254.37,202.77z"/>
        <path class="st12" d="M236.63,209.92c-0.03,0.19-0.02,0.39,0.03,0.58c-3.14,0.18-6.17-1.14-9.33-0.65
			c-1.16-2.2,0.61-1.67,1.55-1.51C231.48,208.78,234.05,209.38,236.63,209.92z"/>
        <path class="st15" d="M238.44,272.44c0.18,1.38,1.01,2.43,1.75,3.53c-3.22,1.65-6.63,0.65-9.94,0.59
			c-1.14-0.02-2.16-1.09-1.98-2.5c0.17-1.31,1.27-1.56,2.4-1.57C233.26,272.47,235.85,272.46,238.44,272.44z"/>
        <path class="st15" d="M245.89,276.18c0.73-1.23,1.45-2.45,2.18-3.68c2,0.02,4.01-0.05,6.01,0.08c1.13,0.08,2.07,0.84,2.12,2.01
			c0.05,1.22-0.96,2.09-2.01,2.08C251.42,276.65,248.59,277.47,245.89,276.18z"/>
        <path class="st9" d="M241.58,194.87c-0.5,3.84,0.92,6.13,5,6.58c0.96,0.11,2.13,0.32,2.85,1.25c-3.96,1.93-7.36,0.26-10.63-1.77
			c-0.84-0.52-1.74-1.34-1.03-2.63C238.64,196.71,239.02,194.57,241.58,194.87z"/>
	</g>
</g>
</svg>
